<svg id="グループ_513" data-name="グループ 513" xmlns="http://www.w3.org/2000/svg" width="582.649" height="138.011" viewBox="0 0 582.649 138.011">
  <path id="パス_309" data-name="パス 309" d="M290.859,431.254a5.562,5.562,0,0,1-1.952,1.211q-1.022.365-6.6.368-5.386.1-6.786,0a9.524,9.524,0,0,0-1.3-.092h-9.852q-5.767.187-7.992-.557a16.372,16.372,0,0,1-1.579-4.6c-.314-1.639-.595-3.347-.838-5.11s-.481-3.563-.7-5.391a32.476,32.476,0,0,0-1.163-5.526c-.806.06-1.5.092-2.087.092h-1.536a12.033,12.033,0,0,0-1.811-.092h-7.2a3.386,3.386,0,0,0-1.027,2.5,9.084,9.084,0,0,1-.46,2.882,15.113,15.113,0,0,0-.514,3.72q-.049,2.044-.233,4.136a18.487,18.487,0,0,1-.789,4,7.88,7.88,0,0,1-2.185,3.39l-6.873.465-8.83.281q-2.052.089-4.883.092c-1.887,0-4.077.027-6.554.092q-7.341.089-7.338-1.86a26.508,26.508,0,0,1,1.022-8.6q1.209-4.128,2.136-8.041,4.834-20.44,9.528-41.074t8.6-41.453q.925-4.177,1.763-8.317t1.768-8.133q.462-2.044,1.065-4.51t1.352-5.342q1.484-5.856,5.575-5.667h3.25q2.23,0,5.672.092t5.667.049a23.029,23.029,0,0,0,3.255-.232,24.321,24.321,0,0,1,9.106.465,6.554,6.554,0,0,1,2.882,2.087A10.062,10.062,0,0,1,264,305.7a22.734,22.734,0,0,1,.838,3.807,28.25,28.25,0,0,0,.838,4q3.9,17.471,7.668,34.8t7.668,34.158q1.387,7.8,3.109,14.729t2.747,13.989a14.517,14.517,0,0,1,1.482,4.737c.189,1.552.465,3.163.838,4.834.433,1.671.838,3.38,1.206,5.11A21.914,21.914,0,0,1,290.859,431.254Zm-73.6-42.75a1.143,1.143,0,0,0,.789-.416,1.676,1.676,0,0,1,.979-.514,15.86,15.86,0,0,1-1.163-1.676,1.657,1.657,0,0,0-1.817-.649l.654,3.347-.746-.092,1.676.649Zm1.4-19.331a1.461,1.461,0,0,0-1.071.649,2.929,2.929,0,0,0-.281,1.114c-.032.438-.043.887-.043,1.352a2.725,2.725,0,0,1-.281,1.254,1,1,0,0,1,.93.465,7.5,7.5,0,0,1,.514,1.022,5.151,5.151,0,0,0,.557,1.022,1.217,1.217,0,0,0,1.071.465,8.3,8.3,0,0,0-.092-2.044c-.13-.806-.249-1.552-.373-2.233s-.249-1.271-.373-1.768A4.279,4.279,0,0,0,218.649,369.172Zm2.785,15.054.189.93.925-.184-.184-.93Zm4.834-27.972.189,1.022.93-.189-.189-1.022Zm2.509,35.6a.716.716,0,0,1-.043.276.334.334,0,0,0,.043.281,1.483,1.483,0,0,0,.606,1.022.97.97,0,0,0,.973.184.556.556,0,0,0,.373-.092,3.828,3.828,0,0,0-.184.649.521.521,0,0,0,.368.189.368.368,0,0,0,.281-.373.836.836,0,0,0-.465-.557l.276-.465-2.877-1.768-.741.465.649.189Zm0-30.486a.664.664,0,0,1-.508.649.542.542,0,0,0-.422.654l.189.276,1.39-.276-.184-.838C229.118,361.4,228.967,361.239,228.777,361.364Zm.189-26.485c-.438.059-.7.233-.79.508a2.99,2.99,0,0,0-.141.979c0,.373.016.741.043,1.114a1.775,1.775,0,0,1-.135.93c.119.125.276.125.46,0a1.994,1.994,0,0,0,1.444-.881,2.04,2.04,0,0,0,.232-1.536,2.43,2.43,0,0,0-.746-1.211Zm-.746,7.527a.532.532,0,0,0-.043.373,1.751,1.751,0,0,1,.043.368,1.325,1.325,0,0,0,.93,1.211,5.079,5.079,0,0,0,1.952,0v-.373a1.43,1.43,0,0,0-1.022-1.255A10.618,10.618,0,0,0,228.221,342.406Zm1.763,27.231a1.465,1.465,0,0,0-1.114,1.114,10.4,10.4,0,0,0,1.071-.233.539.539,0,0,0,.416-.7l-.092-.276Zm1.952,36.153c-.492.432-.914.806-1.254,1.114a1.32,1.32,0,0,0-.417,1.206c.06.314.125.465.184.465l1.4-.276v-.373a.577.577,0,0,0-.373-.465.845.845,0,0,1-.465-.465l1.119-.276a3.368,3.368,0,0,1,.233-.838,1.329,1.329,0,0,1,1.071-.838c.368-.125.633-.092.79.1a.674.674,0,0,0,.7.184c.184,0,.276-.065.276-.184a.4.4,0,0,1-.092-.281c-.059-.308.016-.508.233-.606s.292-.292.233-.6a15.315,15.315,0,0,1-1.768.973,4.731,4.731,0,0,1-1.114.324.262.262,0,0,0-.184.092h-.1Zm-.092-27.978a.661.661,0,0,1-.508.649.546.546,0,0,0-.422.654c.124.308.281.432.465.373a1.16,1.16,0,0,0,.746-.514.991.991,0,0,0,.184-.789C232.308,377.937,232.152,377.813,231.843,377.813Zm1.584,6.6c-.13,0-.189.011-.189.043s-.06.076-.184.141a1.985,1.985,0,0,1-.838,0,1.1,1.1,0,0,0-.649,0c-.314,0-.5.276-.562.833a3.217,3.217,0,0,1,1.3.654,1.782,1.782,0,0,0,1.3.465,1.091,1.091,0,0,0,.649-.654.576.576,0,0,1-.6-.465A7.245,7.245,0,0,1,233.428,384.415Zm-1.492-46.655a1.383,1.383,0,0,0-.276,1.482c0,.313.184.438.557.373a1.754,1.754,0,0,1,.233-.649,1.122,1.122,0,0,0,.049-.93C232.5,337.728,232.308,337.636,231.935,337.761Zm2.606,33.455a9.146,9.146,0,0,0-1.676.606c-.432.216-.589.7-.465,1.438l.654-.092a4.167,4.167,0,0,0,1.255-.514.879.879,0,0,0,.324-1.065Zm3.715,22.213a1.319,1.319,0,0,0-1.065-.281,10.535,10.535,0,0,0-1.255.281c-.438.124-.9.265-1.4.416a5.214,5.214,0,0,1-1.579.233l.557,1.4.276-.184c.249-.189.422-.141.514.135s.292.33.606.141a1.99,1.99,0,0,1,1.022-1.114,16.519,16.519,0,0,0,1.482-.746Zm.281-40.988a6.978,6.978,0,0,0-1.255.606c-.341.216-.665.433-.979.649s-.633.432-.973.649a3.117,3.117,0,0,1-1.346.422l.465,1.206a5.565,5.565,0,0,1,.043,1.909,5.124,5.124,0,0,0-.043,1.53,1.313,1.313,0,0,0,1.114,1.119,3.829,3.829,0,0,1,.557-2.093c.373-.589.757-1.162,1.163-1.719a9.321,9.321,0,0,0,1.022-1.86A4.776,4.776,0,0,0,238.538,352.442ZM235.1,400.21c.433-.06.714.049.838.324a.437.437,0,0,0,.649.233.574.574,0,0,0,.373-.416.606.606,0,0,1,.276-.416l1.671-.281-.649-1.39-1.671.833Zm6.413-74.719a3.719,3.719,0,0,0,1.4.508,6.381,6.381,0,0,0,1.114,0,4.814,4.814,0,0,0,1.114-.233c.373-.124.806-.249,1.3-.373l.092-3.061a7.155,7.155,0,0,0-2.233-1.119,1.2,1.2,0,0,0-.925.141,1.224,1.224,0,0,1-.514.281c-.151.032-.481-.2-.973-.7l-.654,1.3a2.188,2.188,0,0,1,.654-1.3l-.838.368a8.36,8.36,0,0,1-.93-1.114,7.607,7.607,0,0,0-1.022-1.163,2.589,2.589,0,0,0-1.211-.649,1.474,1.474,0,0,0-1.3.416,2.611,2.611,0,0,0,.465,1.628,3.7,3.7,0,0,0,1.114.979,5.343,5.343,0,0,0,1.438.557,8.378,8.378,0,0,1,1.444.465l-.281.833-.092,1.211,1.119,2.044Zm-3.255,11.615a1.151,1.151,0,0,1,.649,0l.465.189a1.76,1.76,0,0,1,.373.043.851.851,0,0,0,.465-.043l.373-.092c.184,0,.216-.157.092-.465-.059-.806-.5-1.119-1.3-.93a1.662,1.662,0,0,0-.93.465A.721.721,0,0,0,238.257,337.106Zm.092-31.227a6.247,6.247,0,0,0,.422,3.255,15.225,15.225,0,0,1,.973,2.877,1.976,1.976,0,0,0,1.352.232,2.6,2.6,0,0,0,1.065-.508,5.063,5.063,0,0,1-.741-3.58,4.272,4.272,0,0,1,1.855-2.552,2.107,2.107,0,0,0-1.017-.373,5.155,5.155,0,0,0-1.352,0,11.45,11.45,0,0,0-2.558.649Zm3.444,20.634a2.265,2.265,0,0,1-.606-.93,5.5,5.5,0,0,0-.514-1.114l-.092.833h-1.114a1.312,1.312,0,0,0-.189,1.909,4.975,4.975,0,0,0,1.768,1.346l.184.838.654-.092v1.114l1.579-.092q-.649-.47-1.022-.7a1.421,1.421,0,0,1-.557-.7,2.939,2.939,0,0,1-.092-.746l-.746.373V326.7ZM241.42,349a2.335,2.335,0,0,0-1.3-1.763c-.065.432-.184,1.065-.373,1.9a4.141,4.141,0,0,0-.092,1.9.247.247,0,0,0,.281.281c.119-.432.243-.822.368-1.163s.53-.573,1.211-.7Zm.557,50.651a3.828,3.828,0,0,0-.649.189,6.659,6.659,0,0,0-.838.508c-.314.216-.465.389-.465.514a8.967,8.967,0,0,1,.373,1.4c.059.432.8.5,2.228.184a1.647,1.647,0,0,0,.189-.465c-.5.124-.779-.059-.838-.557a.774.774,0,0,1-.184-.887A2.731,2.731,0,0,0,241.977,399.653Zm-1.487-3.25c-.189.125-.314.2-.373.233s-.032.2.092.514a3.529,3.529,0,0,0,.373-.422.417.417,0,0,1,.373-.141v-.649a2.07,2.07,0,0,1,.838-.373c.308-.059.584-.124.833-.184a1.148,1.148,0,0,0,.557-.281c.124-.124.092-.341-.092-.649-.308.125-.525-.059-.649-.557a1.509,1.509,0,0,1-.233-.514,1.864,1.864,0,0,1-.049-.324l-.368-.092a1.059,1.059,0,0,0-.93,1.206,3.183,3.183,0,0,1-.189,1.584l-.373.368Zm.465,0-.281-.092h.092A.283.283,0,0,0,240.955,396.4Zm.373,11.523c-.314.249-.465.416-.465.508v.422h.276a.753.753,0,0,0,.189-.557h.649l.184-.562c.432-.059.53-.4.281-1.016h-.281a.857.857,0,0,1-.092.368,1.082,1.082,0,0,0-.092.465l-.465-.092Zm-.189-85.5c0-.124.033-.189.092-.189Zm.281,6.505c.059.06,0,.216-.189.465Zm.092,78.531.092.276A.385.385,0,0,0,241.512,407.461Zm8.549-21.84q-.746-5.67-1.438-9.8t-1.162-6.737A159.647,159.647,0,0,1,245.784,353c-.124-.368-.308-.525-.557-.46q-.373,4.55-.7,8.127t-.6,6.278q-.187,2.6-.789,7.246T241.6,385.621ZM241.6,407.737c.059.13.108.222.141.281a1.294,1.294,0,0,0,.232.281Zm.189-70.814a1.219,1.219,0,0,0,1.206-.092,2.725,2.725,0,0,0,1.022-1.022,2.252,2.252,0,0,0,.324-1.3q-.049-.649-.973-1.022a1.453,1.453,0,0,1-.281,1.022,3.456,3.456,0,0,1-.649.508,1.542,1.542,0,0,0-.649,1.909Zm3.25,12.08a2.1,2.1,0,0,1,.276-1.162c.189-.276.373-.557.557-.833a3.177,3.177,0,0,0,.422-.887,3.088,3.088,0,0,0-.049-1.39l-2.044-.281a7.737,7.737,0,0,0-.092,2.65A3.01,3.01,0,0,0,245.043,349Zm.092-31.5-1.022-.281v1.4h.93Zm-1.022,86.247a.451.451,0,0,1,.416.233,2.179,2.179,0,0,1,.232.508,1.7,1.7,0,0,0,.233.465.338.338,0,0,0,.422.092c.243-.06.368-.151.368-.276a2.41,2.41,0,0,0-.7-1.022c-.341-.308-.6-.405-.79-.281C244.178,403.465,244.113,403.557,244.113,403.746Zm3.9-45.54a1.336,1.336,0,0,0,.281-1.487,5.359,5.359,0,0,0-.746-1.676,3.1,3.1,0,0,1,.049.93q-.049.56-.1,1.022a3.606,3.606,0,0,0,0,.838C247.535,358.081,247.7,358.206,248.017,358.206ZM250.71,320.1l.189-.189-.281-.368-.557.184-2.044-.184v1.3a2.487,2.487,0,0,1,1.211.141c.432.157.681-.011.741-.508l.649-.373.092.649Zm-1.855,83.273q.187-.186,0-.649,0-.187-.373-.1a.374.374,0,0,0-.281.373v.465c0,.314.216.465.654.465Zm-.465,2.228a2.129,2.129,0,0,1,.93.233,1.175,1.175,0,0,0,.833.141.929.929,0,0,0,.465-.741.272.272,0,0,1-.184.092.745.745,0,0,0-.281.092.833.833,0,0,1-.833-.092,1.693,1.693,0,0,0-.654-.281Zm.092-72.583a.962.962,0,0,1,.746.092,5.8,5.8,0,0,0,.649.373,1.153,1.153,0,0,1-.281-.838c0-.373-.016-.773-.043-1.206a3.741,3.741,0,0,0-.232-1.114.8.8,0,0,0-.838-.465Zm6.224-22.954a2.324,2.324,0,0,1,1.071.324,5.329,5.329,0,0,0,1.163.465,1.924,1.924,0,0,0,1.022,0c.308-.1.525-.449.649-1.071a1.57,1.57,0,0,1-.881-.416,4.029,4.029,0,0,1-.6-.79c-.189-.314-.373-.606-.562-.881a1.547,1.547,0,0,0-.833-.606c-.249,0-.465.216-.654.649l-.276.746a1.994,1.994,0,0,1-.606.416,1.434,1.434,0,0,1-1.071-.232q-.56.089-.7-.324a4.383,4.383,0,0,1-.184-.979,3.02,3.02,0,0,0-.233-.973c-.124-.281-.4-.357-.838-.233l-.092,2.785-.649-.276-.281.833h-1.022a4.121,4.121,0,0,0,0,1.211.7.7,0,0,0,.562.649c-.065-.373.092-.557.46-.557v-.649l.746.368.184-.925c.5-.065.93.432,1.3,1.482a12.558,12.558,0,0,1,.649,3.488,11.37,11.37,0,0,1-.373,3.58q-.463,1.671-1.763,1.763a23.555,23.555,0,0,0,.649,3.628,5.951,5.951,0,0,0,.973,2.32c.341.373.638.189.887-.557a22.457,22.457,0,0,0,.465-5.018,10.4,10.4,0,0,1,.973-1.719,7.686,7.686,0,0,0,.979-2.087,7.21,7.21,0,0,0,.233-2.741A9.534,9.534,0,0,0,254.706,310.064Zm-2.417,29.924a9.761,9.761,0,0,0,.33-.973.643.643,0,0,0-.33-.79.984.984,0,0,1-.324.557.679.679,0,0,0-.233.557l-.833-.373.092.373.281.557-.93-.189a10.108,10.108,0,0,0-.092,1.3c0,.373.151.589.46.649-.059-.373.124-.557.562-.557v-.649l.741.465-.281-.93Zm-1.39-29.465-.465-1.855a9.429,9.429,0,0,1,.276.973C250.774,309.924,250.834,310.216,250.9,310.524Zm-.189,9.576h-.092v-.281a.185.185,0,0,0,.049.141A.191.191,0,0,1,250.71,320.1Zm1.3,20.818-1.022-1.579a5.877,5.877,0,0,0,.557.789A2.789,2.789,0,0,1,252.013,340.919Zm1.4,24.533c.059-.989.324-1.579.79-1.763a2.794,2.794,0,0,1,1.536-.141c.557.092,1.114.173,1.671.233a.967.967,0,0,0,1.114-.746l-6.505-1.39a15.26,15.26,0,0,1,.416,2.179A1.989,1.989,0,0,0,253.408,365.452Zm3.9-33.455-1.487-.092a2.212,2.212,0,0,0,.324,1.579,1.019,1.019,0,0,0,1.162.368Zm-.281,51.4a1.586,1.586,0,0,0,.979.184,6.24,6.24,0,0,0,1.53-.184,2.759,2.759,0,0,0,1.3-.746,1.66,1.66,0,0,0,.276-1.671,13.988,13.988,0,0,1-2.277.79A2.637,2.637,0,0,0,257.031,383.393Zm1.768-39.036-.092-1.3-1.211-.092.189,1.3Zm-.092,31.876V375.12l-1.022-.092v1.206Zm1.206-57.81a1.6,1.6,0,0,0,.043-1.022,2.563,2.563,0,0,0-.416-.925.958.958,0,0,0-.557-.422c-.184-.027-.341.141-.465.514.189,0,.308.108.373.324s.124.449.184.7a3.348,3.348,0,0,0,.233.649C259.4,318.424,259.6,318.489,259.913,318.424Zm-.746,51.862a3.045,3.045,0,0,1,.746-.416,2.333,2.333,0,0,0,.7-.422,1.866,1.866,0,0,0,.508-.741,3.579,3.579,0,0,0,.189-1.3,1.634,1.634,0,0,0-2.093.692A1.757,1.757,0,0,0,259.167,370.286Zm.746-9.479c.492-.557.557-1.022.184-1.4s-.741-.741-1.114-1.114C258.923,359.6,259.232,360.434,259.913,360.807Zm-.557-7.343c.557.249.941.3,1.157.141a1.254,1.254,0,0,0,.465-.7,4.657,4.657,0,0,0,.189-.93.823.823,0,0,1,.324-.649L260,351.047a1.79,1.79,0,0,1-.184,1.26A2.72,2.72,0,0,0,259.356,353.464Zm.741,34.574a2.84,2.84,0,0,1,1.909,1.114,6.748,6.748,0,0,1,1.065,2.325,27.391,27.391,0,0,1,.606,2.925,25.8,25.8,0,0,0,.557,2.747,5.223,5.223,0,0,0,.93,1.947,1.694,1.694,0,0,0,1.719.557,3.258,3.258,0,0,1-1.487-1.947,10.828,10.828,0,0,1-.508-3.163,22.074,22.074,0,0,1,.184-3.531q.235-1.768.508-2.974a1.478,1.478,0,0,1-1.438-.281,4.024,4.024,0,0,1-.606-.833l-.557-.93a1.725,1.725,0,0,0-.838-.93,2.4,2.4,0,0,1-1.114,1.487A1.861,1.861,0,0,0,260.1,388.038Zm6.045,27.134a5.984,5.984,0,0,0,1.482-1.438,7.587,7.587,0,0,0,.746-1.39c.184-.465.357-.914.508-1.352a5.517,5.517,0,0,1,.795-1.4c-.373.189-.779.422-1.211.7a4.1,4.1,0,0,1-1.255.562,1.393,1.393,0,0,1-1.114-.189,2.525,2.525,0,0,1-.79-1.628Zm3.25-45.724c.249-.06.341-.368.281-.925l-.93-.281c0,.5-.081.757-.232.789s-.233.173-.233.416Zm1.3,18.5a1.387,1.387,0,0,0-.7,0,.585.585,0,0,0-.422.465l-.833.184.184,1.022a4.529,4.529,0,0,0-.373,2.233,8.44,8.44,0,0,0,.514,2.32,10.211,10.211,0,0,0,1.022,2.049,6.143,6.143,0,0,0,1.163,1.39q.649-.187.746-.649l.46-1.022a1.81,1.81,0,0,1,.373-.881c.184-.216.557-.265,1.114-.141.557-.189.963-.157,1.211.092a2.5,2.5,0,0,1,.557.881c.119.346.26.7.417,1.071a1.257,1.257,0,0,0,.7.746,2.724,2.724,0,0,0,1.444-1.536,6.521,6.521,0,0,0,.135-3.115,1.177,1.177,0,0,1-1.206-.233,3.436,3.436,0,0,1-.606-.973,7.2,7.2,0,0,0-.557-1.071,1.269,1.269,0,0,0-1.163-.508,8.455,8.455,0,0,1-.049,2c-.092.649-.384.946-.881.881l-1.855-.281a4.972,4.972,0,0,1-2.185-.6,2.371,2.371,0,0,1-.979-2.093l.746-.276-.1-.184-.092-.746a3.948,3.948,0,0,1,1.119.373,4.6,4.6,0,0,0,.973.373.578.578,0,0,0,.649-.233,2.851,2.851,0,0,0,.233-1.444c-.308-.059-.6-.124-.881-.184A1.448,1.448,0,0,0,270.7,387.946Zm-1.119-6.786a6.707,6.707,0,0,0,.746-.973,7.322,7.322,0,0,0,.746-1.444,2.439,2.439,0,0,0,.135-1.4,1.3,1.3,0,0,0-.973-.93,3,3,0,0,1-.373,1.3c-.249.5-.481.99-.7,1.487a3.346,3.346,0,0,0-.324,1.3C268.835,380.884,269.078,381.1,269.576,381.16Zm-.184,8.457a.273.273,0,0,0-.092-.184Zm6.321,13.94-.557-.368-.373.368a1.464,1.464,0,0,0-1.254-.135,1.484,1.484,0,0,0-.649.789,4.846,4.846,0,0,0-.324,1.3,9.49,9.49,0,0,1-.281,1.4q1.857,2.417,3.25,4.277t2.417,3.25q-.276-.649-.6-1.4c-.222-.492-.422-.99-.606-1.482a12.407,12.407,0,0,1,.324-2.049c.151-.616.292-1.271.416-1.952s.216-1.406.281-2.179a14.387,14.387,0,0,0-.092-2.747l-1.3-.276a3.906,3.906,0,0,1-.416.606,1.183,1.183,0,0,0-.233.6,1.451,1.451,0,0,1,.93,1.071,2.762,2.762,0,0,1-.049,1.487,1.9,1.9,0,0,1-.838,1.065,1.471,1.471,0,0,1-1.438,0,3.392,3.392,0,0,1-.465-.881,2.393,2.393,0,0,1-.141-1.022,1.655,1.655,0,0,1,.281-.833.794.794,0,0,1,.7-.324l.833.368Zm-3.255-15.519.746.557.276-.838c.746-.119,1.455-.233,2.136-.324a1.686,1.686,0,0,0,1.4-1.346,3.144,3.144,0,0,1-1.3-.557,7.6,7.6,0,0,1-.887-.838c-.276-.308-.557-.633-.833-.973a4.344,4.344,0,0,0-.979-.882,19.67,19.67,0,0,1,.141,2.736,9.114,9.114,0,0,1-.141,1.352c-.119.249-.243.368-.368.368Z" transform="translate(-199.758 -297.703)" fill="#001c2f"/>
  <path id="パス_310" data-name="パス 310" d="M255.357,429.5a2.685,2.685,0,0,1-.368,2.325,2.35,2.35,0,0,1-2.325,1.114c-.87-.059-2.093-.108-3.672-.135s-3.331-.049-5.25-.049h-11.9c-1.611,0-3.055-.016-4.321-.049a18.793,18.793,0,0,1-2.925-.232,3.454,3.454,0,0,1-2.882-1.86,9.737,9.737,0,0,1-.654-3.9c0-.93.032-1.952.092-3.071s.1-2.287.1-3.526l.092-35.878-.281-44.427q0-4.364-.043-6.781t-.1-4.418c-.032-1.33-.059-2.785-.092-4.364s-.043-3.8-.043-6.645c0-1.179-.049-2.6-.141-4.277s-.141-3.38-.141-5.11a32.075,32.075,0,0,1,.416-5.391c.281-1.611.914-2.568,1.909-2.882q2.044-.089,4.926-.141t6.224-.043H263.63a52.657,52.657,0,0,1,14.313,1.719,32.591,32.591,0,0,1,10.225,4.737,24.609,24.609,0,0,1,6.738,7.251,36.627,36.627,0,0,1,3.947,9.246,54.768,54.768,0,0,1,1.811,10.734q.422,5.718.422,11.664,0,1.671-.141,5.067t-.416,7.246q-.284,3.861-.789,7.343a27.863,27.863,0,0,1-1.163,5.251,43.587,43.587,0,0,1-3.812,7.857,14.135,14.135,0,0,1-5.575,4.877q1.111,5.3,2.044,9.247a37.535,37.535,0,0,0,1.86,6.089,57.218,57.218,0,0,1,2.087,6.462q.884,3.39,1.676,6.878t1.628,6.873a38.968,38.968,0,0,0,2.136,6.37,19.366,19.366,0,0,1,1.39,4.553,4.537,4.537,0,0,1-.135,2.276,1.538,1.538,0,0,1-.979.881c-.432.124-.833.249-1.206.373q-4.372.089-7.576.092H270.79a2.764,2.764,0,0,1-2.466-1.163,9.705,9.705,0,0,1-1.255-2.741,54.057,54.057,0,0,1-2.093-9.2q-.7-4.932-1.9-9.944c-.184-.871-.389-2.017-.606-3.439s-.449-2.931-.692-4.51-.5-3.142-.746-4.694-.5-2.909-.741-4.088a2.51,2.51,0,0,1-.141-1.071.624.624,0,0,0-.422-.7,5.925,5.925,0,0,1-2.044.281,8.789,8.789,0,0,1-2.044-.189c-.06,1.054-.092,2.125-.092,3.207v3.488ZM225.525,321.878l.092-.649q2.6,0,2.974-1.676a1.165,1.165,0,0,0-.833-.368,2.649,2.649,0,0,0-1.628.6,1.718,1.718,0,0,0-.789,1.352Zm2.136,8.273a1.148,1.148,0,0,1-.324-.043,1.343,1.343,0,0,0-.416-.049q-.649,0-.649.373c0,.308.184.465.557.465C227.261,330.9,227.537,330.649,227.661,330.151Zm2.887,67.289-.373-.649v-.1a.367.367,0,0,1-.422-.324,5.534,5.534,0,0,0-.135-.649,2.258,2.258,0,0,0-.33-.654,1.145,1.145,0,0,0-.973-.324c-.681,0-1.087.141-1.211.422a7.836,7.836,0,0,0-.184,2.276,1.418,1.418,0,0,0,1.022-.281,1.143,1.143,0,0,1,.838-.276,1.25,1.25,0,0,1,.649.092l.189.741a4.457,4.457,0,0,0,.416.189,1.661,1.661,0,0,1,.557.465,4.432,4.432,0,0,1,.654,1.114c.216.492.476,1.146.79,1.952h.368a.847.847,0,0,0,.746-.281c.124-.184.243-.384.368-.606s.249-.416.373-.6a.828.828,0,0,1,.741-.281,4.63,4.63,0,0,1-1.482-1.346,2.48,2.48,0,0,0-2.136-.882Zm-2.422-63.109a7.094,7.094,0,0,1-.092,1.119,1.458,1.458,0,0,1-.373.833,2.256,2.256,0,0,1,1.26.887,1.433,1.433,0,0,0,1.163.7c.368,0,.708-.281,1.022-.838-.373-.059-.557-.216-.557-.465,0-.124.2-.292.6-.514s.606-.449.606-.7a1.338,1.338,0,0,1-.93-.465c-.184-.243-.373-.508-.557-.79a3.869,3.869,0,0,0-.649-.741,1.666,1.666,0,0,0-1.119-.324.546.546,0,0,1-.373.092Zm4.185,6.694-1.022.557.465.93q-2.88,0-2.882,1.952a5.306,5.306,0,0,0,.281,1.4c.059-.065.276-.092.649-.092a2.362,2.362,0,0,1,1.211.276,2.541,2.541,0,0,0,1.3.281c.249,0,.589-.3,1.022-.887s.741-1.033.93-1.347a6.219,6.219,0,0,1-1.952-1.579l.741-.557-.276-.93c.249,0,.373-.157.373-.465a3.346,3.346,0,0,1,.092-.838c-.622,0-.93.092-.93.281Zm-3.066,33.087c.616-.065,1.238-.108,1.86-.141a1.4,1.4,0,0,0,1.3-.881c-.741-.124-1.455-.216-2.136-.281S229.245,373.183,229.245,374.113Zm.649,23.143a1.965,1.965,0,0,1,.281-.465Zm1.952-55.582a.99.99,0,0,0-.557-.092Zm.93-36.526c-.557.13-.865.281-.93.465a.888.888,0,0,0,.141.7c.157.281.324.578.508.887a1.452,1.452,0,0,1,.189,1.022,3.906,3.906,0,0,0,.6-1.628C233.441,305.818,233.274,305.337,232.776,305.148Zm-.281,82.159v2.141a.909.909,0,0,0,.654-.189,1.906,1.906,0,0,0,.324-.416c.092-.151.184-.292.276-.416a.74.74,0,0,1,.606-.189,1.971,1.971,0,0,1,.741.092v-.368c0-.432-.308-.654-.925-.654Zm.93-65.8a2.451,2.451,0,0,1,.93.324,6.062,6.062,0,0,0,.79.416c.281.124.589.249.93.373a3.678,3.678,0,0,0,1.254.184c.06,0,.173-.259.324-.789a2.722,2.722,0,0,1,.422-.973l-.465-.373.276-.281a1.065,1.065,0,0,1,.373-.184.955.955,0,0,0-.416-.373c-.157-.059-.265-.249-.324-.557l-.93.092.184,1.022a1.08,1.08,0,0,0-.465-.092,3.463,3.463,0,0,0-1.579.373A6.586,6.586,0,0,0,233.425,321.51Zm4.926-9.392a2.1,2.1,0,0,0-1.438-.043,3.578,3.578,0,0,0-1.3.79,3.738,3.738,0,0,0-.93,1.346,2.666,2.666,0,0,0-.141,1.628,3.3,3.3,0,0,0,1.3-.741,6.975,6.975,0,0,0,.838-1.022c.243-.373.492-.73.741-1.071A3.73,3.73,0,0,1,238.351,312.118ZM234.728,358.5l.465.746,1.114-.746h-.281c.189-.059.357-.124.514-.184a2.02,2.02,0,0,1,.7-.092h.373v.93a4.286,4.286,0,0,1,.508-.422,5.555,5.555,0,0,1,.7-.416l-.741-.557c.06-.622.589-.93,1.579-.93h.373l.276.649.838-.184c.059.249.4.368,1.022.368a6.073,6.073,0,0,0,2-.368c.714-.249,1.071-.562,1.071-.93,0-.562-.341-.838-1.022-.838l.281-.649-.746-.281a4.58,4.58,0,0,0-.184-1.39,3.12,3.12,0,0,1-.189-1.022,1.633,1.633,0,0,1,.838-1.4c-.314-.681-.714-1.027-1.211-1.027a3.534,3.534,0,0,0-1.622.465,6.556,6.556,0,0,1-1.9.654,3.045,3.045,0,0,1,2.087,1.628,6.093,6.093,0,0,0,1.536,2.087l-.189.746.838.184a1.3,1.3,0,0,1-.606,1.206,2.209,2.209,0,0,1-1.162.373,1.137,1.137,0,0,1-.833-.276l-.189-.562a2.545,2.545,0,0,1-.649,1.211l.649-1.211-.925.189a1.471,1.471,0,0,0-1.4-.654,5.207,5.207,0,0,0-1.163.141,5.244,5.244,0,0,1-1.162.141,1.25,1.25,0,0,1-.649-.092V358.5Zm2.882-22.862c-.373.184-.654.324-.838.416a5.989,5.989,0,0,1-.838.33l.838-.1-.184,1.027a1.2,1.2,0,0,1-.1.649l-.092.557v.465a4.189,4.189,0,0,1-.092.741,1.969,1.969,0,0,1,1.952,2.233,5.193,5.193,0,0,0,1.536-1.676l.973-1.763c-.741-.308-1.438-.589-2.087-.838a2.868,2.868,0,0,1-1.536-1.4Zm0,6.505a1.919,1.919,0,0,0,.043.465,1.214,1.214,0,0,1,.049.281c0,.059-.016.092-.049.092s-.043.032-.043.092c-.314.249-.622.514-.93.789a1.867,1.867,0,0,0-.465,1.444c0,.124.092.26.276.416a.906.906,0,0,0,.373.232,1.22,1.22,0,0,0,1.211-.557,2.909,2.909,0,0,0,.276-1.3v-.606a1.937,1.937,0,0,0-.092-.6l.281-.373-.281-.557-.649.184.649.281C237.886,342.42,237.67,342.323,237.61,342.139Zm-1.119,25.279a8.312,8.312,0,0,1,1.492-.649c.557-.184,1.1-.384,1.622-.606a4.987,4.987,0,0,0,1.4-.838,2.935,2.935,0,0,0,.881-1.53,4.553,4.553,0,0,1-1.855-.7,4.17,4.17,0,0,0-2.325-.514A11.871,11.871,0,0,0,236.491,367.418Zm.373-46.471-.092-.557a1.165,1.165,0,0,1,.416.092c.157.065.3.13.422.189A1.026,1.026,0,0,1,236.864,320.948Zm-.092,9.949a.589.589,0,0,1,.373.557c.741,0,1.114-.314,1.114-.93a2.891,2.891,0,0,1-.881.043A.559.559,0,0,0,236.772,330.9Zm1.86,64.4a.273.273,0,0,0,.092.189,2.608,2.608,0,0,1-.276.79,14.09,14.09,0,0,1-1.3,2,1.4,1.4,0,0,0,1.022.465,1.954,1.954,0,0,0,1.071-.416,2.476,2.476,0,0,1,1.438-.417h.373v-.746a2.861,2.861,0,0,0-.233-1.163c-.157-.335-.573-.568-1.255-.7Zm-1.022-59.664h-.189l-.184.092Zm.184-29.367a2.842,2.842,0,0,0,1.022,2.325.976.976,0,0,1,.514-.7,6.18,6.18,0,0,1,.93-.422c.341-.119.665-.243.973-.368a2.2,2.2,0,0,0,.741-.465c0-.5-.168-.795-.508-.887a2.476,2.476,0,0,0-1.162,0c-.433.092-.881.205-1.346.324A4.454,4.454,0,0,1,237.794,306.267Zm.746,36.245a.4.4,0,0,0-.281-.092Zm0-11.9a2.939,2.939,0,0,0,.649,2,1.566,1.566,0,0,0,1.3.422,3.379,3.379,0,0,0,1.487-.606,5.973,5.973,0,0,0,1.211-1.071q-1.022-1.484-2-1.39A12.525,12.525,0,0,0,238.54,330.616Zm1.39-17.471c-.368.124-.557.465-.557,1.022a6.936,6.936,0,0,0,.281,1.763,6.937,6.937,0,0,1,.276,1.768c.373-.249.557-.838.557-1.768A4.918,4.918,0,0,0,239.93,313.145ZM241.7,401.9a9.165,9.165,0,0,0,.973-.562,2.435,2.435,0,0,1,.887-.368c-.314-.681-1.271-1.022-2.882-1.022-.065.059-.092.243-.092.557s.2.449.6.416.606.141.606.514A.76.76,0,0,1,241.7,401.9Zm1.022-87.458c-.5.249-.73.562-.7.93a1.5,1.5,0,0,0,.606,1.022,1.728,1.728,0,0,0,.649-.973C243.337,315.081,243.153,314.757,242.72,314.443Zm1.3,61.249a1.035,1.035,0,0,1,.833-.789,1.08,1.08,0,0,0,.838-.881,1.118,1.118,0,0,0-.93-.281,1.7,1.7,0,0,0-.79.373,1.083,1.083,0,0,0-.373.741A.926.926,0,0,0,244.023,375.692Zm1.86-10.69a1.8,1.8,0,0,0-1.768.654.857.857,0,0,1,.416.741c-.032.249.108.406.422.465a.788.788,0,0,1,.789-.373,2.586,2.586,0,0,1,.79.33,1.316,1.316,0,0,0,.649.233c.184,0,.341-.249.465-.746a.412.412,0,0,1-.373-.416v-.606l-.368-.465a1.8,1.8,0,0,1-1.211-.654Zm-1.211-59.389a1.478,1.478,0,0,0,1.86,0c.557-.432,1.081-.8,1.579-1.114a1.79,1.79,0,0,0-.979-.838,2.254,2.254,0,0,0-1.346-.135,1.819,1.819,0,0,0-1.065.649A1.362,1.362,0,0,0,244.672,305.613Zm.092,94.893a1.232,1.232,0,0,0,1.3.93,2.653,2.653,0,0,0,1.206-.33,7.114,7.114,0,0,0,1.022-.6c-.308-.373-.557-.557-.741-.557a1.844,1.844,0,0,0-.979.324,2.108,2.108,0,0,1-1.157.324A1.276,1.276,0,0,1,244.764,400.506Zm1.211-61.714a23.515,23.515,0,0,0,.276,3.628,7.144,7.144,0,0,0,1.114,2.974,3.168,3.168,0,0,0,1.676-.881,1.818,1.818,0,0,0,.368-1.071l-.741-2.606a12.765,12.765,0,0,0-.606-1.763c-.216-.5-.384-.741-.508-.741a1.131,1.131,0,0,0-.746.233A1.3,1.3,0,0,1,245.976,338.792Zm.93,26.025a1.505,1.505,0,0,0,.649-.7c.059-.216.016-.357-.141-.422a.648.648,0,0,0-.557.1,1.268,1.268,0,0,0-.514.741Zm1.947-48.423-1.022.189.281,1.855a1.46,1.46,0,0,0,1.3-.649c.189-.373.341-.714.465-1.022l.746-.465-.373-.649-.93-.092.746.368-.189.1a2.924,2.924,0,0,1-.557-.465Zm-.557,69.143a2.7,2.7,0,0,0,.514.7,1.3,1.3,0,0,0,.973.33A1.36,1.36,0,0,0,248.3,385.538Zm3.066-74.626a2.613,2.613,0,0,1,.233,1.536,3.013,3.013,0,0,1-.465,1.065,10.54,10.54,0,0,0-.6.979,2.357,2.357,0,0,0-.281,1.162,2.4,2.4,0,0,0,1.487-.649,3.092,3.092,0,0,0,.789-1.3,2.841,2.841,0,0,0,.049-1.536,2.744,2.744,0,0,0-.746-1.346l.189-.746-.746.281a9.931,9.931,0,0,1-.789-.881c-.216-.281-.665-.325-1.347-.141a.693.693,0,0,0,.092.649.833.833,0,0,0,.465.233,3.49,3.49,0,0,0,.606.049,1.047,1.047,0,0,1,.6.184l-.092.838Zm2.141-4.926a.994.994,0,0,0,.092.789,1.009,1.009,0,0,0,.465.33c.184.06.357.125.508.184a.623.623,0,0,1,.33.465.632.632,0,0,0,.368-.606,1.231,1.231,0,0,0-.233-.741,1.521,1.521,0,0,0-.649-.514A.918.918,0,0,0,253.5,305.986Zm11.431,27.6a9.345,9.345,0,0,0-1.211-.746,3.1,3.1,0,0,0-1.39-.276,12.9,12.9,0,0,1-2.374-.189,14.786,14.786,0,0,0-2.65-.184h-.93a2.723,2.723,0,0,1-.46-.049,3.432,3.432,0,0,0-.465-.043v3.25c0,2.174-.016,4.337-.049,6.505s-.049,4.31-.049,6.413q0,2.79.049,5.256t.233,4.878c.308-.059.616-.108.93-.141s.616-.043.93-.043a20.568,20.568,0,0,1,3.115.232,8.534,8.534,0,0,0,2.925-.049q2.506-.463,2.882-3.763a89.1,89.1,0,0,0,.373-9.247v-3.488c0-1.082-.032-2.093-.1-3.017h.1l.465.649.368-.189a.33.33,0,0,1,.373.373c-.059.373-.016.589.141.649a1.292,1.292,0,0,0,.508.1.753.753,0,0,1,.465.135c.124.1.157.357.1.789a2.8,2.8,0,0,1,.508-.833,8.753,8.753,0,0,0,.606-.789,3.218,3.218,0,0,0,.416-.93,2.517,2.517,0,0,0-.049-1.255,4.4,4.4,0,0,1-.973.746q-.511.276-2.46-.465c0-1.054.2-1.687.6-1.909a2.291,2.291,0,0,1,1.536-.141,2.6,2.6,0,0,0-.746-1.86,10.342,10.342,0,0,0-1.346-.973,4.068,4.068,0,0,1-1.206-1.114,3.43,3.43,0,0,1-.33-2.369,1.346,1.346,0,0,0-.973.416,1.27,1.27,0,0,1-.881.422c.184.616.368,1.19.557,1.714S264.809,333.093,264.934,333.59Zm-.281-27.323a2.061,2.061,0,0,0,.838-.373.584.584,0,0,1-.324-.092c-.1-.059-.206-.124-.33-.189a31.5,31.5,0,0,1-3.25-1.952,3.921,3.921,0,0,0-1.719.189,1.481,1.481,0,0,0-.973.741,3.017,3.017,0,0,0,.276,1.487,2.318,2.318,0,0,0,.7.746c.281.184.573.373.887.557a2.129,2.129,0,0,1,.741.746,2.674,2.674,0,0,1,1.438-1.211C263.582,306.673,264.155,306.451,264.653,306.267Zm3.255.557a4.452,4.452,0,0,1-1.114-.281,1.847,1.847,0,0,1-.746-.368.252.252,0,0,0-.092.184.745.745,0,0,1-.092.281.785.785,0,0,0,.184.508c.124.157.525.173,1.211.049Zm.373.649-.373-.649a2.284,2.284,0,0,1-.281,1.022Zm5.851,76.119a.73.73,0,0,0-.416-.746,4.223,4.223,0,0,0-.838-.276,1.413,1.413,0,0,1-.7-.373q-.276-.276,0-1.022a5.739,5.739,0,0,1-.973.465c-.341.124-.681.265-1.022.416a4.818,4.818,0,0,0-.93.557,1.452,1.452,0,0,0-.508.979,1.886,1.886,0,0,1,1.622.276,3.192,3.192,0,0,1,.789,1.114,1.292,1.292,0,0,1,1.3-.881A3.031,3.031,0,0,0,274.132,383.592Zm-2.974-16.173c-.93.124-1.33.449-1.206.979a9.157,9.157,0,0,0,.557,1.622c.249-.125.481-.249.7-.368a2.55,2.55,0,0,1,.79-.281c-.065-.557-.216-.9-.465-1.022S271.157,367.916,271.157,367.418ZM279.15,388.7l-.649.746h-2.32a1.2,1.2,0,0,0,.325.6c.151.157.292.313.416.465a1.637,1.637,0,0,1,.281.557,1.6,1.6,0,0,1-.1.887c0,.308-.076.492-.233.557a.62.62,0,0,0-.324.459,1.455,1.455,0,0,1-1.065,0,1.229,1.229,0,0,1-.514-.557l-.465-.741a.8.8,0,0,0-.838-.281,2.144,2.144,0,0,0,1.4,2.325,20.187,20.187,0,0,0,3.066.746,4.237,4.237,0,0,0,1.071-1.909,9.447,9.447,0,0,0,.324-2.552l.746-.281.184-.184.281-.281a12.467,12.467,0,0,1,1.438-.416,16.86,16.86,0,0,1,2.833-.324,1.074,1.074,0,0,0-.416-.7,4.967,4.967,0,0,1-.606-.514,2.483,2.483,0,0,1-.465-.649,2.055,2.055,0,0,1-.092-1.119l-1.952,1.4a3.9,3.9,0,0,0-1.4,2.049Zm-2.969-22.862.649-.373c.373.314.649.454.833.422a.355.355,0,0,0,.33-.281c.027-.151-.065-.308-.281-.465a1.366,1.366,0,0,0-.973-.141l.092-.838-.746.373-.092-.465a2.953,2.953,0,0,0-1.86.514c-.433.341-.5.946-.184,1.811a1.983,1.983,0,0,0,.881-.881c.216-.406.665-.541,1.352-.422Zm.833,4a.941.941,0,0,0-1.438.043,1.529,1.529,0,0,0-.233,1.817,2.575,2.575,0,0,0,1.579-.422C277.295,371,277.322,370.517,277.014,369.836Zm9.944,42.848a4.329,4.329,0,0,0-2.509-1.676,9.488,9.488,0,0,0-3.439.092,2.486,2.486,0,0,0,.979,1.211,4.527,4.527,0,0,0,1.53.649,5.479,5.479,0,0,0,1.768.092A6.659,6.659,0,0,0,286.958,412.683Zm-2.417-8.457a10.786,10.786,0,0,1-.692-3.536,4.692,4.692,0,0,1,1.53-2.877c-.373-.373-.665-.438-.881-.189a9.226,9.226,0,0,0-.7.93,4.714,4.714,0,0,1-.93,1.022,1.368,1.368,0,0,1-1.4.184,18.713,18.713,0,0,1,.979,1.86,4.684,4.684,0,0,1,.141,2.606ZM282.5,361.471a1.241,1.241,0,0,0,.7-.833,4.8,4.8,0,0,0,.141-1.211,2.984,2.984,0,0,1,.184-1.114,1.254,1.254,0,0,1,.93-.654c0-.557-.059-.833-.184-.833a1.215,1.215,0,0,0-.557.233c-.249.151-.53.324-.838.508a1.145,1.145,0,0,1-1.022.092Zm.1,2.509a2.726,2.726,0,0,0-.654,2.606l1.86-.373a2.371,2.371,0,0,0,1.487-.654,1.439,1.439,0,0,0-.7-.508,4.253,4.253,0,0,0-.838-.189,1.755,1.755,0,0,1-.741-.233A.876.876,0,0,1,282.594,363.979Zm.368-49.537c.314-.184.465-.027.465.465l1.114-.184c-.184-.184-.2-.308-.043-.373a1.217,1.217,0,0,0,.416-.276l-.184-1.027c-.308.189-.465.1-.465-.276l-1.114.184a.34.34,0,0,1-.281.465Zm4.461,106.508a1.159,1.159,0,0,0,.281-.557,1.076,1.076,0,0,0-.1-.417c-.06-.157-.124-.324-.184-.514a2.153,2.153,0,0,1,0-.93,1.06,1.06,0,0,0-1.114.233,1.429,1.429,0,0,0-.373.979,1.407,1.407,0,0,0,.373.973A1.039,1.039,0,0,0,287.423,420.951Zm1.022-31.968c-1.114-.189-1.611.157-1.487,1.022h1.487ZM290.862,419a1.869,1.869,0,0,0,1.4-.833,5.23,5.23,0,0,0,.557-1.584C291.392,416.582,290.737,417.388,290.862,419Z" transform="translate(-108.312 -297.81)" fill="#001c2f"/>
  <path id="パス_311" data-name="パス 311" d="M273.4,432.575q-3.35.649-6.646.979t-7.808.324q-4.51,0-8.83-.324a68.127,68.127,0,0,1-7.668-.979,4.174,4.174,0,0,1-1.487-2.6,18.7,18.7,0,0,1-.373-3.855,38.734,38.734,0,0,1,.233-4.234,36.535,36.535,0,0,0,.232-4q0-11.891-.232-24.4t-.465-25.506q-.227-13.01-.276-26.772t.416-28.156q.089-2.514.141-4.694a18.572,18.572,0,0,1,.465-3.953,6.29,6.29,0,0,1,1.438-2.877,4.325,4.325,0,0,1,2.882-1.3c.865-.124,2.185-.233,3.947-.324s3.72-.151,5.856-.184,4.369-.032,6.694,0a38.512,38.512,0,0,1,5.434.368,35.377,35.377,0,0,1,4.137.979,5.285,5.285,0,0,1,2.839,1.579,12.435,12.435,0,0,1,1.346,5.391,79.808,79.808,0,0,1,.233,8.317q-.1,4.51-.233,8.873t-.324,6.97q0,8.557-.189,15.892t-.276,12.642q-.186,8.184-.141,15.384t.092,13.94q.049,6.74.092,13.194t-.043,13.059c0,1.925.043,3.58.135,4.975s.141,2.725.141,4a19.5,19.5,0,0,1-.324,3.623A12.057,12.057,0,0,1,273.4,432.575Zm-25.285-29.74a6.371,6.371,0,0,1,1.119-.465h.092l-1.211.465.746-.184a3.8,3.8,0,0,1,0,1.163,7.543,7.543,0,0,1-.233.93,2.3,2.3,0,0,0-.141.692.739.739,0,0,0,.373.557,1.829,1.829,0,0,0,1.579-.092,2.193,2.193,0,0,1,1.4-.368,1.554,1.554,0,0,1-.373-.979,3.513,3.513,0,0,1,.1-.881,1.038,1.038,0,0,0,0-.606c-.065-.151-.314-.292-.746-.416l.184-.562-.184-.465a1.475,1.475,0,0,1-.092-.93,6.987,6.987,0,0,0,.092-1.114,4.007,4.007,0,0,0-.092-.925.6.6,0,0,0-.465-.465c-.189.368-.406.557-.654.557a1.4,1.4,0,0,1-.741-.233c-.249-.157-.5-.324-.746-.514a1.236,1.236,0,0,0-.741-.276,1.487,1.487,0,0,1-.281.93c-.184.243-.357.492-.508.741a2.4,2.4,0,0,0-.324.881,3.466,3.466,0,0,0,.092,1.346,2.778,2.778,0,0,0,1.952.465Zm-1.763-12.545a1.1,1.1,0,0,0,.557.741,1.377,1.377,0,0,0,.881.232,1.434,1.434,0,0,0,.79-.368,1.3,1.3,0,0,0,.281-1.162,7.932,7.932,0,0,1-1.536-.324C246.859,389.251,246.535,389.543,246.351,390.289Zm2.509,37.359a.879.879,0,0,0-.049-1.114,2.411,2.411,0,0,0-.881-.649,1.25,1.25,0,0,0-.789-.1c-.216.065-.141.189.233.373.433.125.525.314.276.557a1.014,1.014,0,0,0-.276.93Zm16.265-80.672a3,3,0,0,1-2.742.281,3.848,3.848,0,0,1-1.536-1.671,21.992,21.992,0,0,1-1.022-2.466,6.3,6.3,0,0,0-1.114-2.093c.746-.373,1.054-1.173.93-2.412q-1.955-1.119-2.974-.422a3.6,3.6,0,0,0-1.4,2.277,9.658,9.658,0,0,0-.092,3.58,10.092,10.092,0,0,0,1.022,3.391c.059-.249.243-.357.557-.324a1.943,1.943,0,0,0,.93-.141l-.281.746.746.276a10.692,10.692,0,0,0,.508,1.071,3.865,3.865,0,0,1,.422,1.254,2.237,2.237,0,0,1-.092,1.114c-.13.314-.562.465-1.3.465l.276-.649-.741.184a5.877,5.877,0,0,0-2.325-1.811A10.364,10.364,0,0,1,252.3,348a8.045,8.045,0,0,0,.092-3.2,10.581,10.581,0,0,0-1.114-2.655,14.065,14.065,0,0,0-1.444,3.12,15.171,15.171,0,0,0-.741,3.666,13.239,13.239,0,0,0,.233,3.672,8.044,8.044,0,0,0,1.487,3.3q.746-.187,1.4-.324a1.583,1.583,0,0,0,1.022-.7l.833.281.189-.838a1.954,1.954,0,0,0,.508-.833,3.177,3.177,0,0,1,.422-.887,1.918,1.918,0,0,1,.741-.649,2.044,2.044,0,0,1,1.3-.049l-.281.654c.124-.189.249-.373.373-.557l-.373.649.746-.281c.616.746,1.1.963,1.438.654a6.318,6.318,0,0,0,1.071-1.4c.373-.622.757-1.222,1.162-1.817a2.054,2.054,0,0,1,1.811-.881.6.6,0,0,1,.6.281,5.406,5.406,0,0,1,.281.649,2.89,2.89,0,0,0,.373.7.793.793,0,0,0,.7.324,9.222,9.222,0,0,1-.233-1.114,2.506,2.506,0,0,1,0-.7c.027-.216.076-.481.141-.789a7.278,7.278,0,0,0,.092-1.3l.741-.184-.276-.741h.465a.8.8,0,0,0,.416-.7,6.406,6.406,0,0,0,0-1.119,3.748,3.748,0,0,1,.049-1.065.654.654,0,0,1,.557-.562c.5-.184.822-.233.973-.135a.721.721,0,0,1,.324.416l.189.746a.6.6,0,0,0,.465.465,17.764,17.764,0,0,1-.049-2.282c.032-.773-.265-1.19-.881-1.255a18.494,18.494,0,0,0-1.86.789,4.514,4.514,0,0,0-1.3.93,2.1,2.1,0,0,0-.508,1.352,2.956,2.956,0,0,0,.7,1.86l-.281.741Zm-14.962,55.111a5.841,5.841,0,0,1-.838.281Zm2.136-26.577a1.665,1.665,0,0,0-.043-1.163,2.427,2.427,0,0,0-.7-.881,1.5,1.5,0,0,0-.93-.373,1.061,1.061,0,0,0-.838.465q.56,0,.7.373c.092.249.184.525.276.838a1.735,1.735,0,0,0,.422.741C251.369,375.695,251.742,375.695,252.3,375.511Zm-2.136,26.577-.373-.465h.465Zm0,0,.092.562c0,.249-.081.341-.232.276s-.233-.151-.233-.276Zm5.018,18.5-.465.184c-.249-.492-.465-.973-.654-1.438a5.844,5.844,0,0,1-.368-1.346,10.21,10.21,0,0,1-.092-1.492,15.621,15.621,0,0,1,.184-2.136,1.827,1.827,0,0,0-2.136.092,8.237,8.237,0,0,0-1.86,1.487,2.593,2.593,0,0,1,2.509,2.417c.059.314,0,.514-.184.606a3.182,3.182,0,0,1-.654.233,1.289,1.289,0,0,0-.6.324c-.157.157-.173.422-.049.79a2.279,2.279,0,0,1,1.071.422c.276.216.541.417.789.6a1.973,1.973,0,0,0,.833.373,1.78,1.78,0,0,0,1.211-.373l.465.189.557-.189a1.319,1.319,0,0,0,1.022.557,2.492,2.492,0,0,0,1.114-.276,2.742,2.742,0,0,0,.93-.746,1.586,1.586,0,0,0,.373-1.017,1.936,1.936,0,0,0-1.211-.141,1.728,1.728,0,0,0-.741.416,3.055,3.055,0,0,1-.606.465,1.781,1.781,0,0,1-.881.184Zm-2.233-66.543-.184.833a2.827,2.827,0,0,1-2.509-2.509q.365-.552.7-1.022a1.566,1.566,0,0,1,1.346-.465,7.943,7.943,0,0,0,.746.654,4.068,4.068,0,0,1,.784.833,2,2,0,0,1,.373.979,1.2,1.2,0,0,1-.416.973Zm3.812,13.194v-2.974l.649.184a2.683,2.683,0,0,1-.373-.465l.373.465-.184-.741a1.81,1.81,0,0,1,1.4.141,1.306,1.306,0,0,1,.557.881c.059.373.108.789.141,1.255a3.206,3.206,0,0,0,.324,1.255,3.348,3.348,0,0,0-.649.232,1.888,1.888,0,0,1-.838.141,2.724,2.724,0,0,0,.557,2.509l-.746.557,1.027.184-.281-.741h.465a3.829,3.829,0,0,0,.79-1.53c.157-.589.292-1.211.416-1.86a13.4,13.4,0,0,1,.514-1.909,4.017,4.017,0,0,1,1.157-1.671,4.561,4.561,0,0,0,1.72.043.932.932,0,0,0,.795-.881,3.464,3.464,0,0,0-1.4-.973c-.557-.216-1.1-.449-1.628-.7a4.042,4.042,0,0,1-1.346-1.022,2.615,2.615,0,0,1-.557-1.768H257.69a5.887,5.887,0,0,1,.973,2.931,2.143,2.143,0,0,1-1.438,2.369l-.746-.189.281.746a2,2,0,0,1-.7.373,4.159,4.159,0,0,1-1.071.233,4.282,4.282,0,0,1-1.114-.049.692.692,0,0,1-.649-.557l.276-.746-.741-.184a3.922,3.922,0,0,1,.508-1.022,3.778,3.778,0,0,0,.514-1.022,3.167,3.167,0,0,0-1.254-.368,2.051,2.051,0,0,1-1.255-.562,2.442,2.442,0,0,1,0,.93l-.092,1.114a3.207,3.207,0,0,0,.092.881c.06.222.249.357.557.422l-.276.833.741.281a1.487,1.487,0,0,1-.508.7,2.823,2.823,0,0,0-1.027,1.444,2.333,2.333,0,0,0,.049,1.206h1.952l-.281.746.746.276c0,.373.016.7.043.973a.57.57,0,0,0,.514.514c-.124-.5.032-.806.465-.93l.649-.276-.184-.746H256.2c0-.557.184-.865.557-.93l.465.654.93-.281-.557-.649ZM250.812,316.4a4.573,4.573,0,0,1,2.233.465,7.568,7.568,0,0,1,1.482,1.065c.432.405.871.838,1.3,1.3a6.991,6.991,0,0,0,1.4,1.163c.124-.806.027-1.352-.281-1.628a3.3,3.3,0,0,0-1.114-.654,2.383,2.383,0,0,1-1.071-.741c-.276-.341-.292-.946-.043-1.812a2.339,2.339,0,0,1-1.444.092,3.133,3.133,0,0,1-.973-.465,3.117,3.117,0,0,0-.741-.416.682.682,0,0,0-.746.232Zm.746,47.579a5.456,5.456,0,0,1,1.947-1.022Zm1.39,4.185a.636.636,0,0,0-.465.189Zm-.184-33q1.3-.089,3.39-.276a16.3,16.3,0,0,1,3.9.092,6.429,6.429,0,0,1,2.974,1.162c.773.589.973,1.568.606,2.926a3.633,3.633,0,0,0,1.671-.46,2,2,0,0,0,.789-.979,3.211,3.211,0,0,0,.141-1.487c-.06-.589-.124-1.254-.184-2a8.24,8.24,0,0,1-2.79-.092c-.806-.184-1.211-.806-1.211-1.86a9.7,9.7,0,0,0-2.412.654q-1.119.462-2.417.925a2.459,2.459,0,0,1-1.352-1.206,3.143,3.143,0,0,0-1.157-1.3,1.281,1.281,0,0,1-.557.79,9.291,9.291,0,0,0-.887.7,2.14,2.14,0,0,0-.6.881A2.7,2.7,0,0,0,252.764,335.172Zm.741,32.72-.741-.281c.06-.249.324-.373.79-.373s.7.124.7.373l-.746.281.281.741h-.557l.276-.741a2.129,2.129,0,0,1-.557.276Zm0,0a3.238,3.238,0,0,1,1.4,1.022Zm2.233,22.954a3.754,3.754,0,0,0,3.255.092l1.39-.741a4.721,4.721,0,0,1,1.671-.465q-.276-2.141-1.016-2.417a1.885,1.885,0,0,0-1.676.276,8.2,8.2,0,0,0-1.86,1.628A9.106,9.106,0,0,1,255.738,390.846Zm3.255-17.66a7.01,7.01,0,0,1,.925-1.4l-.741.281c-.314.059-.465-.092-.465-.465l.281-.746a2.5,2.5,0,0,1-.514-.043c-.157-.032-.324-.081-.514-.141l.189.93a.674.674,0,0,1-.465.276l-.654.1a1.259,1.259,0,0,0-.557.135.527.527,0,0,0-.276.514h2.974Zm-2.049-9.387v-.092a1.624,1.624,0,0,0-.465-.746Zm.092.184-.092-.184Zm6.6,51.954a1.068,1.068,0,0,0-.93-.789,9.314,9.314,0,0,0-1.346,0,4.834,4.834,0,0,1-1.346-.092c-.438-.092-.714-.449-.838-1.071v-1.763a1.142,1.142,0,0,0-.184-.7c-.13-.151-.406-.168-.838-.043a11.151,11.151,0,0,0-.838,1.622,3.877,3.877,0,0,0-.092,2.276,2.758,2.758,0,0,0,2.65,1.022c1.271-.059,2.52-.092,3.764-.092l.184.746.746-.189v.465a6.062,6.062,0,0,0,1.719-.043.988.988,0,0,0,.79-.979h-2.509l-.189-.649Zm-4.926-17.282a2.281,2.281,0,0,1,.141-1.487c.216-.557.433-1.087.649-1.584a2.885,2.885,0,0,0,.281-1.346c-.032-.4-.389-.73-1.071-.979q-.276.657-.7,1.444a8.25,8.25,0,0,0-.649,1.579,2.268,2.268,0,0,0,0,1.444C257.517,398.157,257.966,398.465,258.712,398.654ZM257.5,351.719l-.092.184-.092.1Zm-.092-4a10.58,10.58,0,0,0,1.022-.557Zm.281,34.758a3.7,3.7,0,0,0,1.206,0l.93-.276a5.244,5.244,0,0,1,1.022-.281,4.093,4.093,0,0,1,1.206,0,3.228,3.228,0,0,0-.741-2.233,2.21,2.21,0,0,0-1.671-.838,1.912,1.912,0,0,0-1.579.887A3.655,3.655,0,0,0,257.69,382.481Zm3.531-70.447a.676.676,0,0,1-.557-.93,4.87,4.87,0,0,1-1.163.043.7.7,0,0,0-.789.422.805.805,0,0,1,.557.276l.746.465a2.132,2.132,0,0,0,.692.232C260.929,312.575,261.1,312.4,261.221,312.034Zm-2.228,61.341.649-.281a1.437,1.437,0,0,1,.373.746l.276.833a2.6,2.6,0,0,0,.465.654.923.923,0,0,0,.838.184q-.47-2.977,2.412-2.417c-.124-.373-.124-.633,0-.789a.818.818,0,0,1,.562-.281,3.839,3.839,0,0,1,.79,0,6.123,6.123,0,0,0,.7.049,17.833,17.833,0,0,0,.465-2,8.121,8.121,0,0,0,0-2.46,14.731,14.731,0,0,0,1.022-1.206,10.672,10.672,0,0,0,1.114-1.768,5.281,5.281,0,0,0,.557-1.719,1.071,1.071,0,0,0-.741-1.162,29.511,29.511,0,0,0-2.417,3.158,8.606,8.606,0,0,1-2.882,2.7,6.013,6.013,0,0,1-.746,3.531,3.472,3.472,0,0,1-2.785,1.487l.276-.838Zm1.114,49.9a8.907,8.907,0,0,0,2.509,2.839c.99.708,2.477.914,4.461.6a15.518,15.518,0,0,0,.838-1.952c.184-.557.368-1.081.557-1.579s.384-1.022.6-1.579a8.226,8.226,0,0,1,.979-1.763,20.3,20.3,0,0,0-2.136.46,11.486,11.486,0,0,1-2,.373,9.8,9.8,0,0,1-1.952,0,3.6,3.6,0,0,1-1.909-.833.988.988,0,0,0-.46.925v1.4a1.958,1.958,0,0,1-.233,1.022C261.205,423.436,260.789,423.463,260.108,423.279Zm3.9-96.007a1.766,1.766,0,0,0-1.162-.416q-.787-.049-1.622-.049c-.184.373-.157.654.092.838a1.65,1.65,0,0,0,1.022.281,2.6,2.6,0,0,0,1.206-.281Zm0,69.43a4.672,4.672,0,0,0,4.093-2.979h-4.461a1.6,1.6,0,0,0-.1.887,4.017,4.017,0,0,0,.233.606,2.757,2.757,0,0,1,.232.649A1.822,1.822,0,0,1,264.006,396.7Zm0,7.9a.755.755,0,0,1,.606-.514c.341-.092.654-.168.93-.233a1.974,1.974,0,0,0,.746-.324c.216-.151.292-.449.233-.881a2.92,2.92,0,0,1-1.952-.562.974.974,0,0,1-.281.606,3.832,3.832,0,0,0-.465.7,1.564,1.564,0,0,0-.184.7A.565.565,0,0,0,264.006,404.6Zm-.184-30.762.746.184a.849.849,0,0,0,0,.789,1.218,1.218,0,0,0,.508.606.939.939,0,0,0,.606.141c.184-.032.308-.205.373-.514a.563.563,0,0,1-.422-.557.46.46,0,0,0-.508-.465v-.93Zm0,0,.557-.373a4.148,4.148,0,0,1,.746-.373h-1.119Zm.092,42.842a.861.861,0,0,1-.092.373Zm.092-93.309c-.124.741-.076,1.173.141,1.3a.5.5,0,0,0,.606-.043.7.7,0,0,0,.233-.649C264.952,323.7,264.628,323.5,264.006,323.374Zm3.536,88.107a2.731,2.731,0,0,0-.325-1.211,2.471,2.471,0,0,0-.838-.979,2.126,2.126,0,0,0-1.162-.324,1.713,1.713,0,0,0-1.211.557,1.368,1.368,0,0,1,.93.465l.562.838a2.793,2.793,0,0,0,.7.654A1.657,1.657,0,0,0,267.543,411.481Zm-3.163,4.18q-.187.462-.276.649Zm3.163-24.814c.249-1.054.032-1.671-.649-1.86a5.775,5.775,0,0,0-2.325-.092q-.284,1.484.7,1.719A9.763,9.763,0,0,0,267.543,390.846Zm-2.974-33c.557.124.93.049,1.114-.233a2.116,2.116,0,0,0,.324-1.022,9.29,9.29,0,0,0,0-1.346,6.531,6.531,0,0,1,.049-1.4h-1.487a6.832,6.832,0,0,0,.092,1.3c.06.308.108.573.141.79a3.388,3.388,0,0,1,0,.741A10.571,10.571,0,0,1,264.568,357.851Zm0,21.564a2.641,2.641,0,0,1,.881.184,6,6,0,0,0,1.163.281,5.784,5.784,0,0,0,1.255.043,2.043,2.043,0,0,0,1.163-.508,2.145,2.145,0,0,0-2.093-.887A4.762,4.762,0,0,0,264.568,379.415Zm.276-33.18a11.247,11.247,0,0,0,1.022.557Zm2.233,54.457a2.112,2.112,0,0,1-.049-.79,3.209,3.209,0,0,0,0-.789.726.726,0,0,0-.232-.508c-.125-.092-.368-.076-.741.048Q265.869,400.414,267.078,400.693Zm.465-47.763a1.02,1.02,0,0,0,.973-.281,1.021,1.021,0,0,1,.973-.281,2.275,2.275,0,0,0-.417-1.952,4.181,4.181,0,0,0-1.53-1.022Zm3.434,26.485h1.492c.059-.746-.438-1.055-1.492-.93Z" transform="translate(-22.074 -298.094)" fill="#001c2f"/>
  <path id="パス_312" data-name="パス 312" d="M303.334,322.118c0-1.8-.043-3.58-.141-5.342s-.135-3.488-.135-5.159q0-3.066-.1-4.877t-.092-3.4a4.043,4.043,0,0,1,.514-2.136,2.267,2.267,0,0,1,2.093-.833c.368,0,1.065-.032,2.087-.1s2.152-.124,3.4-.184,2.444-.124,3.623-.184,2.071-.1,2.693-.1q1.857,0,3.861.141t3.855.141h3.023c1.082,0,2.12.032,3.109.092a18.326,18.326,0,0,1,2.558.324c.714.157,1.13.39,1.255.7a13.959,13.959,0,0,1,.606,5.207q-.138,3.066-.141,6.224,0,4.745.048,9.62t.043,9.9v1.676L335.4,360.97V379l.184,38.57v7.154a19.946,19.946,0,0,1-.649,5.2q-.649,2.425-2.325,2.422-3.528,0-8.084.043t-9.3.049q-1.857,0-3.482.043c-1.087.033-2.184.049-3.3.049h-4.088a2.928,2.928,0,0,1-2.276-1.487,19.9,19.9,0,0,1-2.093-3.947q-1.022-2.466-1.947-5.532t-1.817-6.229q-.884-3.155-1.671-6.089t-1.536-5.061q-2.231-6.416-3.715-11.015t-2.606-8.365q-1.111-3.764-2.087-7.251t-2.093-7.57q.373,6.691.746,14.681t.7,15.849q.324,7.851.557,14.913t.233,11.993a13.664,13.664,0,0,1-.092,1.39,8.585,8.585,0,0,1-.373,1.676,3.929,3.929,0,0,1-.838,1.438,1.8,1.8,0,0,1-1.4.606q-5.021,0-10.5.233T261.422,433a29.159,29.159,0,0,1-4.185-.281,12.217,12.217,0,0,1-3.531-1.022,6.213,6.213,0,0,1-1.346-2.882,18.462,18.462,0,0,1-.324-3.531c0-1.422.027-3.017.092-4.785s.092-3.672.092-5.716c0-1.92-.043-3.872-.141-5.856s-.135-3.931-.135-5.851a25.755,25.755,0,0,1,.184-3.115,25.76,25.76,0,0,0,.184-3.115q0-14.219-.092-28.253t-.092-27.231v-8.089q0-2.133.049-4.272c.027-1.422.043-2.915.043-4.461q0-3.066-.092-6.6t-.092-7.067q0-4.088.184-6.316a5.942,5.942,0,0,1,1.022-3.255,3.7,3.7,0,0,1,2.6-1.206c1.179-.124,2.85-.184,5.023-.184,1.422,0,3.017.011,4.785.043s3.547.049,5.343.049q2.133,0,3.953-.049c1.206-.032,2.3-.043,3.293-.043a20.959,20.959,0,0,1,3.536.232,5.675,5.675,0,0,1,2.093.741,3.6,3.6,0,0,1,1.206,1.255,7.757,7.757,0,0,1,.7,1.855q2.879,10.228,5.759,18.688t5.44,16.076q2.555,7.624,4.694,14.778t3.623,14.681Zm-45.724-1.952a3.013,3.013,0,0,0,.7,1.909,1.959,1.959,0,0,0,1.536.881,1.607,1.607,0,0,0,1.114-.557,1.15,1.15,0,0,1-.838-.557l-.557-.93a2.689,2.689,0,0,0-.514-.557,1.288,1.288,0,0,0-.881-.281A1.331,1.331,0,0,0,257.61,320.166Zm3.72-4.829a1.017,1.017,0,0,0,.6.7,2.808,2.808,0,0,0,.881.135h1.022a2.132,2.132,0,0,1,1.211.373c.373.249.557.806.557,1.671a3.779,3.779,0,0,1-.049.649,3.283,3.283,0,0,0-.043.562c0,.557.184.833.557.833.5,0,.849-.384,1.071-1.163a8.416,8.416,0,0,0,.324-2.276v-.833a1.99,1.99,0,0,0-1.255-.93,8,8,0,0,0-1.817-.184c-.492,0-1.006.016-1.53.043s-1.038.049-1.53.049l-.189-.838-.649.189v-.465h-.746a3.27,3.27,0,0,0-1.206.184,1.019,1.019,0,0,0-.557.93h2.509l.184.741Zm.741,76.763a2.115,2.115,0,0,0-1.206.373,1.027,1.027,0,0,0-.557.838,2.344,2.344,0,0,0,.6,1.719,5.084,5.084,0,0,0,1.346.973Zm3.066-29.091a3.438,3.438,0,0,1-1.255-.324,4.015,4.015,0,0,0-1.53-.324,2.04,2.04,0,0,0-1.487.649,1.983,1.983,0,0,0,1.855.93A3.691,3.691,0,0,0,265.137,363.009Zm-.281,36.435-.276-.741-.649.184.184.838h.649c-.681.124-1.1.341-1.254.649a1.847,1.847,0,0,0-.233.741v1.027c0,1.054-.433,1.579-1.3,1.579-.249,0-.432-.184-.557-.557l-.092-.838a.611.611,0,0,0-.465-.465v1.952a4.89,4.89,0,0,0,.135,1.255.81.81,0,0,0,.7.606,9.968,9.968,0,0,0,2.417-1.255,2.447,2.447,0,0,0,1.114-2.093,4.538,4.538,0,0,0-.649-2.044Zm-3.715-85.317a.565.565,0,0,0-.092.373Zm4,54.739a.406.406,0,0,1,.049-.184.458.458,0,0,0,.043-.184,1.249,1.249,0,0,0-.324-.838.92.92,0,0,0-.7-.368c-.249,0-.4.184-.465.557.249,0,.373.168.373.508s.157.508.465.508v1.022l1.206-.833Zm-.373,17.752a.791.791,0,0,0-.833.606,4.92,4.92,0,0,0-.189,1.444v2.32h1.4a11.285,11.285,0,0,0-.092-1.72,5.706,5.706,0,0,1-.092-1.065v-.654a3.067,3.067,0,0,1,.184-.93Zm.838,37.64c0-.741-.157-1.114-.465-1.114-.249,0-.373.184-.373.557,0,.432.281.746.838.93Zm.465-89.594a5.066,5.066,0,0,1-.557,2.19,4.886,4.886,0,0,0-.557,2.087,1.4,1.4,0,0,0,1.114,1.4c.184-.557.449-1.222.79-2a5.468,5.468,0,0,0,.514-2.184,1.814,1.814,0,0,0-1.3-1.86Zm5.3,37.922-.93-.184-.281.833a4.174,4.174,0,0,0-.741,1.72c-.124.654-.233,1.319-.324,2a12.1,12.1,0,0,1-.465,2.044,4.583,4.583,0,0,1-1.162,1.86c-.249-.059-.449-.108-.606-.141a2.5,2.5,0,0,0-.508-.049,1.084,1.084,0,0,0-1.211,1.119,2.941,2.941,0,0,0,1.255,1.114c.525.249,1.038.5,1.536.741a3.656,3.656,0,0,1,1.255,1.022,3.129,3.129,0,0,1,.508,1.952h1.952a6.364,6.364,0,0,1-.93-3.25,2.5,2.5,0,0,1,1.4-2.509l.649.184-.276-.838a3.2,3.2,0,0,1,.838-.465,3.53,3.53,0,0,1,1.4-.276c.681,0,1.049.249,1.114.741l-.281.838.654.189a5.784,5.784,0,0,1-.465,1.157,6.3,6.3,0,0,0-.465,1.071,2.362,2.362,0,0,0,1.206.465,1.776,1.776,0,0,1,1.206.649.936.936,0,0,1,0-1.114l.1-1.206a3.677,3.677,0,0,0-.1-.979.626.626,0,0,0-.557-.416l.281-.93-.746-.373a2.6,2.6,0,0,1,.93-1.211,1.8,1.8,0,0,0,.649-1.579c0-.492-.308-.865-.925-1.114a4.753,4.753,0,0,0-1.768-.368,2.317,2.317,0,0,0-.741.092v.276a.628.628,0,0,1-.189.465,5.133,5.133,0,0,1-.881-.373c-.216-.119-.449-.243-.7-.368,0,.681-.184,1.022-.557,1.022l-.373-.746-.93.373,1.3,3.531-.281.373a5.364,5.364,0,0,1-.93.184.862.862,0,0,1-.79-.373,2.608,2.608,0,0,1-.324-.93c-.06-.368-.108-.773-.141-1.206a3.029,3.029,0,0,0-.324-1.206,5.227,5.227,0,0,1,1.022-.281c.373-.06.557-.4.557-1.022a3.015,3.015,0,0,0-.557-1.86Zm-1.579-62.547a13.862,13.862,0,0,1,.79,2.087,8.993,8.993,0,0,1,.227,2.19v1.254a7.039,7.039,0,0,1-.184,1.53,1.373,1.373,0,0,0,.838.281,2.738,2.738,0,0,0,1.628-.7,7.162,7.162,0,0,0,1.346-1.347,2.68,2.68,0,0,1-2.417-2.7v-.184a.545.545,0,0,1,.232-.514,2.43,2.43,0,0,1,.557-.232,2.3,2.3,0,0,0,.557-.233.545.545,0,0,0,.233-.514c0-.059-.125-.2-.373-.416a10.136,10.136,0,0,0-.833-.649c-.314-.216-.622-.416-.93-.606a1.654,1.654,0,0,0-.654-.276,2.323,2.323,0,0,0-1.017.368l-.465-.184-.465.184a1.209,1.209,0,0,0-1.114-.649,2.15,2.15,0,0,0-1.492.746,2.2,2.2,0,0,0-.741,1.579,2.052,2.052,0,0,0,.93.184,1.423,1.423,0,0,0,1.255-.606,1.34,1.34,0,0,1,1.162-.6l.465.184ZM265.6,420.451a1.439,1.439,0,0,0,.79.368,5.724,5.724,0,0,0,1.071.092h.746a1.038,1.038,0,0,0,.092-.46.689.689,0,0,0-.324-.654,1.586,1.586,0,0,0-.795-.184,2,2,0,0,0-1.114.373Zm6.04-60.876a.6.6,0,0,1-.276-.049.75.75,0,0,0-.281-.043,2.853,2.853,0,0,0-1.53.373,2.934,2.934,0,0,1-1.536.368h-.557a3.558,3.558,0,0,0,.789,2.46,2.227,2.227,0,0,0,1.628.887,1.636,1.636,0,0,0,1.3-.7,3.656,3.656,0,0,0,.557-2.277,3.361,3.361,0,0,0-.043-.465A3.226,3.226,0,0,1,271.642,359.575Zm.557-33.644a3.315,3.315,0,0,1,.746-1.487l.838-.838c.243-.249.476-.476.7-.7a1.46,1.46,0,0,0,.324-1.065,12.547,12.547,0,0,1-2.514,1.114,5.134,5.134,0,0,0-2.32,1.671Zm3.812,3.72a2.392,2.392,0,0,1-1.114.557l.465-.281v-.649a6.107,6.107,0,0,1,.141-1.352,4.862,4.862,0,0,0,.141-1.065.587.587,0,0,0-.33-.606,1.553,1.553,0,0,0-.6-.141,1.854,1.854,0,0,0-1.071.281,2.113,2.113,0,0,1-1.163.276,2.675,2.675,0,0,1,.373,1.3,3.779,3.779,0,0,1-.049.649,2.88,2.88,0,0,0-.049.465.83.83,0,0,0,.746.838l-.184.557.184.557a2.91,2.91,0,0,1,.184.838,5.7,5.7,0,0,1-.092.973,5.678,5.678,0,0,0-.092.979c0,.616.184.963.557,1.022.189-.432.406-.654.654-.654a1.557,1.557,0,0,1,1.022.562,1.548,1.548,0,0,0,1.022.557,2.088,2.088,0,0,1,.508-1.536,2.377,2.377,0,0,0,.514-1.719,1.4,1.4,0,0,0-1.579-1.579h-.373Zm-2.6,66.261q3.253.373,3.25,5.11v.465a2.48,2.48,0,0,1,1.071,1.3,6.481,6.481,0,0,1,.281,1.579,16.343,16.343,0,0,0,.184,1.72,3.747,3.747,0,0,0,.789,1.719c.184-.06.341-.292.465-.7a11.18,11.18,0,0,0,.324-1.4c.092-.525.168-1.082.233-1.671s.092-1.1.092-1.536a1.464,1.464,0,0,0-.276-1.022,4.32,4.32,0,0,0,.092-.789V400a8.507,8.507,0,0,0-.189-1.855c-.124-.557-.249-1.114-.368-1.676a2.781,2.781,0,0,0-.465.049,3.273,3.273,0,0,1-.557.049c-.622,0-.93-.249-.93-.746a1.079,1.079,0,0,1,.092-.465,2.727,2.727,0,0,1-.838.092q-1.484,0-1.482-1.952v-.746H274.9a.678.678,0,0,0-.649.33,2.427,2.427,0,0,0-.281.741c-.065.281-.124.557-.184.838a1.408,1.408,0,0,1-.373.7l-.746-.281Zm.649-64.872.092-.557-.092-.557c0-.249.06-.373.189-.373s.184.124.184.373l-.281.557.281.557Zm1.3-28.529a3.567,3.567,0,0,0-.184.649,1.037,1.037,0,0,0,.557,1.022,2.306,2.306,0,0,0,1.022.276c.184,0,.276-.027.276-.092q0-.187-.276-.276a.368.368,0,0,1-.281-.373,1.555,1.555,0,0,1,.141-.606,1.552,1.552,0,0,0,.141-.6Zm1.3,64.78c0,.119-.011.2-.043.227a.356.356,0,0,0-.049.233,2.239,2.239,0,0,0,.557,1.487,1.6,1.6,0,0,0,1.211.649.834.834,0,0,0,.741-.46c-.373,0-.606-.108-.7-.33a4.45,4.45,0,0,1-.233-.741,3.335,3.335,0,0,0-.276-.79.665.665,0,0,0-.649-.373A1.263,1.263,0,0,0,276.66,367.291Zm.654,58.177a8.331,8.331,0,0,0,3.206-1.909,2.713,2.713,0,0,0,.7-1.628,3.1,3.1,0,0,0-.373-1.622c-.249-.406-.838-.606-1.768-.606-1.054,0-1.655.308-1.811.93a14.317,14.317,0,0,0-.233,3.066A6.067,6.067,0,0,0,277.314,425.469Zm.649-106.605a2.292,2.292,0,0,0,.881-.649,1.477,1.477,0,0,0,.416-1.022,1.327,1.327,0,0,0-.557-1.022,1.375,1.375,0,0,0-1.114,1.487A2.87,2.87,0,0,0,277.963,318.863Zm4.369,32.065a1.27,1.27,0,0,0-1.3-1.114q-1.022,0-1.022,1.4v.373a3.948,3.948,0,0,1,.789.233,1.767,1.767,0,0,0,.7.141C281.867,351.956,282.148,351.615,282.332,350.928Zm7.251,12.826a4.422,4.422,0,0,1,.092,1.536c-.065.525.124.789.557.789a1.077,1.077,0,0,0,.465-.092v-.654A1.432,1.432,0,0,0,289.583,363.755Zm2.969-4.364a.737.737,0,0,1-.46.6,3.425,3.425,0,0,1-.79.189,1.836,1.836,0,0,0-.746.233c-.216.119-.325.4-.325.833v.373a3.015,3.015,0,0,1,1.86.557,1.952,1.952,0,0,1,.416-1.071,1.966,1.966,0,0,0,.416-1.065A.8.8,0,0,0,292.552,359.391Zm6.51,19.05a4.726,4.726,0,0,0-3.9,3.255h4.272a3,3,0,0,0,.189-.838,1.468,1.468,0,0,0-.281-.979,1.652,1.652,0,0,1-.276-1.071Zm-3.347,6.316a2.375,2.375,0,0,0-.092.746,1.321,1.321,0,0,0,.557,1.254,2.546,2.546,0,0,0,1.3.324,4.817,4.817,0,0,0,1.114-.092v-.373c0-.806-.265-1.314-.79-1.53A5.505,5.505,0,0,0,295.715,384.757Zm6.04,18.871a6.723,6.723,0,0,1,.838,2.185,4.058,4.058,0,0,0,.741,1.806,2.685,2.685,0,0,0,.189-1.157,10.215,10.215,0,0,0-.189-1.812C303.026,403.72,302.5,403.38,301.755,403.628Zm5.11-75.562c.746,0,1.114-.308,1.114-.93,0-.681-.4-1.022-1.206-1.022-.184,0-.276.313-.276.93v1.022Zm3.066,69.8a1.78,1.78,0,0,1-.881-.184c-.216-.124-.416-.249-.606-.373v.557c0,.308-.016.632-.043.973s-.049.671-.049.979c0,.616.157.962.465,1.022v-.373a.783.783,0,0,1,.233-.649,2.388,2.388,0,0,1,.557-.324,1.767,1.767,0,0,0,.557-.373.945.945,0,0,0,.233-.7,1.328,1.328,0,0,0-.092-.557Zm.373,20.169a12.7,12.7,0,0,0,.281,1.811,7.918,7.918,0,0,1,.184,1.812,1.014,1.014,0,0,1-.416.973,2.181,2.181,0,0,1-1.071.233l-.838.092a1.471,1.471,0,0,0,.324.654c.222.308.449.622.7.93a10.641,10.641,0,0,0,.746.838c.249.249.4.368.465.368a6.906,6.906,0,0,0,1.114-4.088,6.08,6.08,0,0,0-.368-2.228A2.8,2.8,0,0,0,310.3,418.033Zm-1.022-5.018c-.373,0-.557.151-.557.46,0,.373.308.562.93.562.433,0,.649-.157.649-.465a.412.412,0,0,1-.465-.465l-.092-.092Zm2.882-101.306a5.181,5.181,0,0,0-.606-2.276,2.307,2.307,0,0,0-1.811-1.065,6.348,6.348,0,0,1,.141.973,6.782,6.782,0,0,0,.184,1.163,2.168,2.168,0,0,0,.465.925,1.353,1.353,0,0,0,1.071.373A1.249,1.249,0,0,0,312.164,311.709Zm-.092,14.962a8.544,8.544,0,0,0,1.4,1.628,2.6,2.6,0,0,0,1.671.887,1.406,1.406,0,0,0,1.114-.562,7.364,7.364,0,0,1-1.3-1.53,1.952,1.952,0,0,0-1.676-.979.939.939,0,0,0-.557.141C312.6,326.347,312.381,326.487,312.073,326.671Zm3.342-21.283a.92.92,0,0,0-.881-.649h-1.346a1.267,1.267,0,0,1-.557-.141,1.107,1.107,0,0,0-.465-.141,2.487,2.487,0,0,0,.746,1.26,1.855,1.855,0,0,0,1.3.508A1.361,1.361,0,0,0,315.414,305.388Zm-1.947,50.467a1.217,1.217,0,0,1,.557-.93l.649-.649a3.194,3.194,0,0,0,.606-.838,2.736,2.736,0,0,0,.233-1.206c0-.308-.406-.589-1.211-.838s-1.455-.432-1.947-.557a18.52,18.52,0,0,0,.184,2.79A5.026,5.026,0,0,0,313.468,355.855Zm5.294,8.646a1.061,1.061,0,0,0,.465-.838,2.528,2.528,0,0,0-.465-1.3c-.616.065-1.238.108-1.86.141a8.043,8.043,0,0,0-1.763.281,2.626,2.626,0,0,0-1.346.833,3.027,3.027,0,0,0-.606,1.719c0,.13.092.189.281.189a3.56,3.56,0,0,0,1.254-.189,5.034,5.034,0,0,0,.973-.465,7.474,7.474,0,0,1,.93-.465,3.1,3.1,0,0,1,1.114-.184Zm-4.737,35.872a1.315,1.315,0,0,1,.881.373,4.715,4.715,0,0,1,.741.833,8.69,8.69,0,0,0,.654.838.871.871,0,0,0,.6.373c.189,0,.465-.308.838-.93a1.734,1.734,0,0,1-1.579-.979c-.373-.649-.806-.973-1.3-.973A.912.912,0,0,0,314.025,400.373Zm0,21.467a4.5,4.5,0,0,1,.789.324.778.778,0,0,0,.416.141.248.248,0,0,0,.281-.276c0-.249-.216-.373-.654-.373A1.253,1.253,0,0,0,314.025,421.84Zm5.542-8.268a2.043,2.043,0,0,1,.725.465,3.436,3.436,0,0,1,.5.649,1.8,1.8,0,0,0,.595.6,1.65,1.65,0,0,0,.914.232h.454a3.327,3.327,0,0,1-.092-.925,3.222,3.222,0,0,1,.432-1.72,1.292,1.292,0,0,1,1.114-.7,1.477,1.477,0,0,1,.87.373,2.232,2.232,0,0,1-.535-1.536c-.027-.708-.081-1.438-.141-2.185a9.51,9.51,0,0,0-.389-2.044,1.349,1.349,0,0,0-1.26-1.022l.092.557c0,1.487-.708,2.228-2.136,2.228a.354.354,0,0,1-.368-.233,4.46,4.46,0,0,1-.189-.6c-.06-.249-.124-.465-.184-.654a.874.874,0,0,0-.373-.459c-.124.432-.341.681-.649.741s-.622.108-.93.141a1.618,1.618,0,0,0-.838.324,1.468,1.468,0,0,0-.373,1.206.606.606,0,0,0,.189.514,1.492,1.492,0,0,0,.465.233,1.26,1.26,0,0,1,.465.281.929.929,0,0,1,.184.649,4.214,4.214,0,0,1,1.022-.606,2.761,2.761,0,0,1,1.022-.233c1.179,0,1.768.687,1.768,2.049a.911.911,0,0,1-.882.973,11.147,11.147,0,0,1-1.719.141,8.59,8.59,0,0,1-1.352-.1,4.763,4.763,0,0,1-1.071-.276q-.649,1.111-.973,1.72a3.681,3.681,0,0,0-.324,1.719,2.665,2.665,0,0,0,.141.881c.092.281.352.416.79.416h1.579c.557,0,.865-.151.93-.465-.87,0-1.3-.492-1.3-1.487a2.145,2.145,0,0,1,.411-1.3A1.645,1.645,0,0,1,319.567,413.573Zm-.93-40.8c.427.065.887.5,1.379,1.3a13.781,13.781,0,0,1-1.979,3.9,15.851,15.851,0,0,0-2.06,3.9l2.32-1.4c.373-.184.714-.357,1.027-.514a1.931,1.931,0,0,1,.833-.233.905.905,0,0,1,.838.654,2.95,2.95,0,0,1,.276,1.114,2.016,2.016,0,0,1-.092.654l.714-.465a2.764,2.764,0,0,0,1.611-2.422,1.436,1.436,0,0,0-.552-1.346,2.542,2.542,0,0,1-.919-.973,3.37,3.37,0,0,1-.319-1.114c-.1-.557-.2-1.13-.324-1.719a8.076,8.076,0,0,0-.5-1.628c-.216-.5-.508-.746-.87-.746a1.793,1.793,0,0,0-.827.189,8.719,8.719,0,0,1-.827.368Zm-2.1-24.63a.406.406,0,0,1,.184.049.389.389,0,0,0,.184.049.977.977,0,0,0,.838-.373,1.206,1.206,0,0,1,1.022-.373h.373a2.48,2.48,0,0,1-.092-.741,1.853,1.853,0,0,1,.7-1.72,9.525,9.525,0,0,1,1.438-.7,2.826,2.826,0,0,0-.925-2.325,6.928,6.928,0,0,0-2.19,2.79C317.539,345.975,317.026,347.089,316.534,348.138Zm1.579-18.585a3.914,3.914,0,0,0,1.676-.881,2.632,2.632,0,0,0,.649-2c0-.373-.281-.557-.838-.557h-1.022a2.391,2.391,0,0,1,.092.838,1.336,1.336,0,0,1-.465,1.114,1.078,1.078,0,0,0-.465.838A.8.8,0,0,0,318.113,329.553Zm.184,6.505a3.106,3.106,0,0,1,1.417-.789,14.631,14.631,0,0,0,1.687-.557,4.334,4.334,0,0,0,1.368-.838,2.115,2.115,0,0,0,.546-1.622,2.769,2.769,0,0,1-.817.092,3.682,3.682,0,0,1-1.325-.233,10.922,10.922,0,0,0-1.325-.422,4.418,4.418,0,0,1-.914,1.86,3.062,3.062,0,0,0-.638,2.044Zm.838-29.178a.39.39,0,0,0,.281.092.839.839,0,0,0,.741-.465,2.1,2.1,0,0,0,.281-1.119c0-.741-.341-1.114-1.022-1.114a2.636,2.636,0,0,0-.557.092.5.5,0,0,0-.373.557,1.638,1.638,0,0,0,.233.795A5.01,5.01,0,0,1,319.135,306.88Zm7.527,41.166a2.052,2.052,0,0,0-.93-.465c-.368,0-.649.249-.833.746s-.389,1.038-.606,1.628a8.893,8.893,0,0,1-.789,1.628,1.458,1.458,0,0,1-1.3.741.457.457,0,0,1-.184-.043.408.408,0,0,0-.184-.049,1.089,1.089,0,0,0,.649,1.114,5.087,5.087,0,0,0,1.53.373c.589.059,1.2.108,1.817.141a3.672,3.672,0,0,1,1.487.324,2.933,2.933,0,0,0,.092-.838,4.656,4.656,0,0,0-.649-2.46,3.667,3.667,0,0,1-.654-1.817A1.352,1.352,0,0,1,326.661,348.047Zm-2.882-39.03a1.532,1.532,0,0,1,1.211,1.579,4.647,4.647,0,0,1-.746,1.86,6.7,6.7,0,0,0,2.747-.838,2.707,2.707,0,0,0,1.065-2.509c0-.865-.324-1.379-.974-1.53a7.2,7.2,0,0,0-1.628-.233,1.744,1.744,0,0,0-.979.276A2.431,2.431,0,0,0,323.779,309.016Zm.93,61.151a1.838,1.838,0,0,0,.189-.838v-.092Zm4.558-49.91.135-.416a1.343,1.343,0,0,0,.049-.416c0-.249-.2-.5-.606-.746a11.68,11.68,0,0,1-1.065-.741,3.042,3.042,0,0,0-.189.925C327.592,319.55,328.149,320.015,329.268,320.258Zm-.465,45.73c0-.308.016-.622.043-.93a8.954,8.954,0,0,0,.049-.93c0-.622-.216-.93-.649-.93h-.281c.124.681.216,1.336.281,1.952a2.182,2.182,0,0,0,.557,1.4Z" transform="translate(30.236 -297.585)" fill="#001c2f"/>
  <path id="パス_313" data-name="パス 313" d="M307.841,334.155q.649-1.582,1.536-3.574c.589-1.33,1.206-2.682,1.86-4.045s1.281-2.693,1.9-4,1.173-2.45,1.671-3.439q1.306-2.6,2.558-5.807t2.417-6.04a44.019,44.019,0,0,1,2.276-4.834c.746-1.33,1.455-2.028,2.141-2.093a55.55,55.55,0,0,1,7.435-.276q4.177.089,8.825.092,2.32,0,4.975-.141t5.2-.184q2.555-.049,4.926.043a17.92,17.92,0,0,1,4.045.562,2.865,2.865,0,0,1,.092,1.622,7.015,7.015,0,0,1-.606,1.719,12.618,12.618,0,0,1-.93,1.579c-.341.5-.606.9-.789,1.211a13.526,13.526,0,0,1-1.065,2.6c-.465.865-.887,1.7-1.255,2.509q-3.066,6.878-6.51,13.291t-6.6,13.1q-2.133,4.558-4.786,9.338t-4.786,9.344q.462,1.484,1.671,4.694t2.79,7.295q1.582,4.088,3.3,8.6t3.3,8.549q1.582,4.047,2.839,7.2c.833,2.109,1.471,3.661,1.9,4.65q2.409,6.132,4.694,12.777t4.412,12.778c.184.557.432,1.211.741,1.952s.589,1.52.838,2.325a11,11,0,0,1,.465,2.509,5.746,5.746,0,0,1-.373,2.509,48.4,48.4,0,0,1-8.133.746c-2.509,0-5.013-.081-7.527-.233s-5.094-.313-7.759-.465a75.209,75.209,0,0,0-8.738.043,6.823,6.823,0,0,1-2.693-2,14.954,14.954,0,0,1-1.86-2.833,25.59,25.59,0,0,1-1.579-4.461c-.373-1.487-.741-2.974-1.114-4.456s-.789-3.006-1.255-4.558a26.851,26.851,0,0,0-1.9-4.645,16.838,16.838,0,0,1-1.3-3.4c-.373-1.33-.746-2.72-1.114-4.18s-.714-2.866-1.027-4.228a23.035,23.035,0,0,0-1.022-3.439,6.386,6.386,0,0,0-1.3,1.719c-.432.773-.838,1.579-1.206,2.417s-.7,1.611-.979,2.32a4.459,4.459,0,0,1-.7,1.352v7.154c0,1.8.016,3.872.049,6.229s.043,4.629.043,6.829-.059,4.12-.184,5.764a6.618,6.618,0,0,1-.649,3.017,4.11,4.11,0,0,1-2.466,1.119,29.471,29.471,0,0,1-4,.324q-2.279.041-4.834-.049t-5.067-.092q-2.223,0-5.061-.049c-1.893-.027-3.672-.092-5.343-.184a37.681,37.681,0,0,1-4.369-.465c-1.238-.216-1.952-.541-2.136-.979a6.649,6.649,0,0,1-.373-2.087c-.065-.963-.108-2.012-.141-3.158s-.032-2.309,0-3.488.049-2.2.049-3.066q0-11.242.135-22.305t.233-22.165q.1-11.112.1-22.446t-.281-23.143q-.089-4-.373-7.851t-.416-7.484a55.964,55.964,0,0,1,.141-6.921,24.506,24.506,0,0,1,1.3-6.181q1.306-.186,4.093-.324t6.224-.232q3.439-.1,7.154-.092t6.878.135c2.109.1,3.877.233,5.3.422a5.357,5.357,0,0,1,2.6.741,6.884,6.884,0,0,1,1.211,3.158,31.824,31.824,0,0,1,.416,4.742q.049,2.6-.092,5.207c-.092,1.73-.173,3.217-.232,4.456-.125,2.606-.2,4.477-.233,5.624a26.507,26.507,0,0,0,.049,2.882c.059.779.119,1.611.184,2.509S307.781,332.176,307.841,334.155Zm-27.853-23.792-.184-.465c.308,0,.433-.233.368-.692a4.42,4.42,0,0,1,0-1.255q-1.208.089-.925,1.947l-.746.281.189.741a.459.459,0,0,0-.514.465,3.694,3.694,0,0,0,.049,1.022,1.28,1.28,0,0,1,1.065-.465c.465,0,.638-.335.514-1.022Zm-1.482-.184c.249.059.481.108.7.141a6.484,6.484,0,0,0,.795.043Zm2.7,7.062a1.706,1.706,0,0,0-.141,1.768c.281.681.546,1.379.789,2.093a5.5,5.5,0,0,1,.33,2.044c-.032.649-.546,1.157-1.536,1.53,0,.308.108.481.324.514a4.277,4.277,0,0,0,.838,0l1.022-.1a1.643,1.643,0,0,1,.881.141A32.831,32.831,0,0,0,281.21,317.241Zm1.909,28.626c-.124-.5-.26-.557-.416-.184a1.991,1.991,0,0,0-.141,1.114c.065.492.189.524.373.092A1.691,1.691,0,0,0,283.118,345.867Zm0,17.19a1.237,1.237,0,0,0-.141.93.892.892,0,0,0,.465.422,5.251,5.251,0,0,0,.654.233.554.554,0,0,1,.416.373c.373-.189.557-.406.557-.654a1,1,0,0,0-.324-.7,2.334,2.334,0,0,0-.789-.508A1.377,1.377,0,0,0,283.118,363.057Zm1.022-52.694c-.308,0-.492.092-.557.281a1.666,1.666,0,0,0-.043.7,7.462,7.462,0,0,0,.135.833,1.26,1.26,0,0,1,0,.7c.433.13.714.081.838-.135a1.293,1.293,0,0,0,.141-.795,3.5,3.5,0,0,0-.233-.93C284.3,310.7,284.205,310.487,284.14,310.363Zm1.492,57.161c-.871-.124-1.411,0-1.628.373a2.212,2.212,0,0,0-.189,1.482,14.487,14.487,0,0,0,.422,1.909,6.037,6.037,0,0,1,.276,1.53,1.993,1.993,0,0,0,.514-1.065,7.427,7.427,0,0,0,.141-1.444l.092-1.579A8.864,8.864,0,0,1,285.633,367.524Zm-1.492,50.65a1.441,1.441,0,0,0-.092.838,2.427,2.427,0,0,0,.233.508,3.372,3.372,0,0,1,.232.465,1.351,1.351,0,0,1,0,.7c.5.059.806-.016.93-.233a.689.689,0,0,1,.654-.325A1.992,1.992,0,0,0,284.14,418.174Zm.373-113.667c.125.314,0,.465-.373.465-.059.314.016.514.233.606a1.317,1.317,0,0,0,.7.092.837.837,0,0,0,.606-.368.688.688,0,0,0-.043-.795Zm4,120.546c-.06-.557-.26-.871-.6-.93a2.491,2.491,0,0,0-1.211.141,12.457,12.457,0,0,0-1.4.557,1.96,1.96,0,0,1-1.162.233c.065.249.314.416.746.508a6.356,6.356,0,0,0,1.4.141,5.025,5.025,0,0,0,1.4-.184A1.486,1.486,0,0,0,288.51,425.052Zm-1.417-12.734c-.622-.124-1.038,0-1.254.373a2.286,2.286,0,0,0-.141,1.579c.373-.249.708-.481,1.022-.7A1.28,1.28,0,0,0,287.093,412.318Zm6.343-89.032q-2.141-.835-2.325-2.233a6.806,6.806,0,0,1,.373-3.066c.373-1.119.806-2.244,1.3-3.391a6.941,6.941,0,0,0,.649-3.212,1.819,1.819,0,0,1-.671.93,11.622,11.622,0,0,1-1.038.7,3.024,3.024,0,0,0-.9.838,1.838,1.838,0,0,0-.184,1.444c-.06.368-.308.541-.741.508s-.865-.048-1.3-.048a2.777,2.777,0,0,0,0,1.768,4.031,4.031,0,0,0,.741,1.157c.308.346.606.7.881,1.071a2.413,2.413,0,0,1,.416,1.487.973.973,0,0,1-.368.838,7.06,7.06,0,0,1-.789.514,2.408,2.408,0,0,0-.7.557,1.187,1.187,0,0,0-.184.974,5.8,5.8,0,0,1,1.438,0c.525.065,1.033.108,1.519.141a6.949,6.949,0,0,0,1.427-.049,1.526,1.526,0,0,0,1.055-.557l.919.281.552-.649a2.552,2.552,0,0,1,.643.092c.243.06.335.249.276.557.3-.5.611-1.022.914-1.579a5.134,5.134,0,0,0,.552-2.141l.184-.741a1.407,1.407,0,0,1,.557.184l-.189-.746a.386.386,0,0,0-.092-.276v.184l-.649.465.184.93a1.125,1.125,0,0,1-.838.557l-1.114.465a4.953,4.953,0,0,0-.925.514,1.339,1.339,0,0,0-.557.979l-.838-.281Zm-3.347,41.263a5.836,5.836,0,0,1-.043,1.671.871.871,0,0,1-.979.746.651.651,0,0,0,.514.557,3.211,3.211,0,0,0,.957.043c.362-.027.724-.076,1.087-.135a1.383,1.383,0,0,1,.9.092q-.535-3.066,2.4-2.509a3.218,3.218,0,0,0-.789-2.374,4.745,4.745,0,0,1-1.163-2.087,3.3,3.3,0,0,0-.313,1.255,5.759,5.759,0,0,1-.222,1.3,2.105,2.105,0,0,1-.676,1.022A2.588,2.588,0,0,1,290.089,364.55Zm-.465,20.629a13.678,13.678,0,0,1,1.6,3.861,7.027,7.027,0,0,1-.2,4.5,3.31,3.31,0,0,0,.93-.93l.746-1.3a4.971,4.971,0,0,1,.838-1.114,2.18,2.18,0,0,1,1.39-.557,5.272,5.272,0,0,1-1.368-2.558,25.321,25.321,0,0,1-.552-3.3,2.979,2.979,0,0,0-.914.189l-.643.649a1.778,1.778,0,0,1-.638.557A1.858,1.858,0,0,1,289.623,385.178Zm.373,32.39c.249.53.432.914.557,1.163.308,0,.481-.092.514-.276a1.651,1.651,0,0,0-.049-.654,4.379,4.379,0,0,0-.465-1.022C289.937,416.779,289.748,417.044,290,417.568Zm1.579-90.384c-.806-.124-1.271.081-1.39.606a1.273,1.273,0,0,0,.46,1.346c.373-.308.746-.6,1.119-.881S292.073,327.623,291.575,327.185Zm-1.022,45.265a7.09,7.09,0,0,0,.465.93,4.912,4.912,0,0,1,.465,1.022,2.091,2.091,0,0,0,1.022.092,4.385,4.385,0,0,0,.7-.233c.216-.092.449-.184.7-.281a2.118,2.118,0,0,1,1.022-.043,13.751,13.751,0,0,1-2-1.022A3.91,3.91,0,0,0,290.553,372.45Zm.092,28.529v.93c.995.184,1.46-.125,1.4-.93ZM301.9,355.719l-.562-.281-.557.281a1.826,1.826,0,0,1-.93-1.487,5.16,5.16,0,0,1,.281-1.671c.184-.557.384-1.087.606-1.584a1.275,1.275,0,0,0,.043-1.206,2.807,2.807,0,0,1-2.974.141,2.977,2.977,0,0,1-1.4-2.558,11.308,11.308,0,0,0-2.974,2.974c-.124.314-.124.5,0,.557l.281.465a1.868,1.868,0,0,1,.281,1.3,4.133,4.133,0,0,1,2.785.465c.616.433.838,1.3.649,2.6h2.882l.281.741.741-.276c-.059.184.049.341.33.465a2.111,2.111,0,0,0,.881.184.986.986,0,0,0,.741-.281c.189-.184.189-.465,0-.833ZM294,319.193c.368.184.649.184.833,0a.929.929,0,0,0,.281-.7.946.946,0,0,0-.281-.7c-.184-.184-.465-.184-.833,0Zm3.434,97.029c-.06-.249-.276-.432-.649-.557a1.823,1.823,0,0,0-1.071-.049,1.643,1.643,0,0,0-.833.514c-.216.249-.2.616.043,1.114a1.15,1.15,0,0,0,.838-.092,1.341,1.341,0,0,0,.417-.422,1.351,1.351,0,0,1,.422-.416A1.165,1.165,0,0,1,297.432,416.222Zm1.4-16.822a.775.775,0,0,0-.93-.881c-.616.027-1.271.043-1.952.043.065.5.233.806.514.93s.541.233.789.324a.837.837,0,0,1,.508.465c.092.216-.016.606-.324,1.163.308,0,.481-.2.514-.606s.324-.508.881-.324l.838.184.649-.184v.465H301.9v-1.952a1.36,1.36,0,0,0-.838.416,1.881,1.881,0,0,1-.746.514l-.649-.184Zm-1.114-80.115a.541.541,0,0,0,.368.189Zm.184-3.434a3.811,3.811,0,0,0,.092,1.017A4.19,4.19,0,0,0,297.9,315.851Zm4,46.746a8.188,8.188,0,0,0-3.677,2.185q-.884,1.16,1.163,3.671a7.7,7.7,0,0,1,1.536-2.65A4.633,4.633,0,0,0,301.9,362.6Zm-2.514,56.6a.567.567,0,0,0,.324.373c.157.06.233.249.233.557h.838c.124-.5.032-.757-.276-.789S299.816,419.261,299.384,419.2Zm1.952-63.758-.184.184-.184.281Zm0,18.963v.93q1.679.276,1.4-.93Zm3.531-15.616a.706.706,0,0,1-.043.746c-.157.184-.108.4.135.649q1.208-.373,1.022-1.4a.523.523,0,0,1-.557.049A.717.717,0,0,0,304.867,358.785Zm9.852,2.6a.518.518,0,0,1-.373.092h-.557l.654.746a10.847,10.847,0,0,1,.135,2.044c-.033.5-.384.806-1.065.93a4.161,4.161,0,0,1-2.6.092,14.413,14.413,0,0,0-2.417-.557,5.414,5.414,0,0,1,0,1.4,9.181,9.181,0,0,0-.049,1.628,5.3,5.3,0,0,0,.324,1.53,2.422,2.422,0,0,0,1.022,1.206.752.752,0,0,1,.141-.833,2.445,2.445,0,0,1,.838-.606,2.019,2.019,0,0,1,1.022-.184.775.775,0,0,1,.7.508,4.172,4.172,0,0,0-.373,1.719,1.909,1.909,0,0,1-.838,1.536c.5,1.114.99,2.141,1.487,3.066a10.026,10.026,0,0,0,1.768,2.417c-.065-.06-.032-.216.092-.465l.465-.373.373-.368c.125-.124.092-.341-.092-.654a1.447,1.447,0,0,1-1.817-.833c-.341-.746-.7-1.487-1.065-2.233a8.1,8.1,0,0,1,.692-.508,1.457,1.457,0,0,1,.465-.189c.157-.027.357-.059.606-.092a4.243,4.243,0,0,0,1.022-.324,2.6,2.6,0,0,1-.557-2.044,2.539,2.539,0,0,1,.79-1.536,1.448,1.448,0,0,1,1.352-.324c.492.124.9.681,1.206,1.671a1.428,1.428,0,0,0,.606-.6,1.455,1.455,0,0,0,.092-.746,5.934,5.934,0,0,0-.189-.93q-.138-.511-.227-.973a27.578,27.578,0,0,1-2.276-2.65,12.53,12.53,0,0,1-.979-1.536A7.368,7.368,0,0,1,314.719,361.386Zm.557,19.7c-.059.373.081.589.422.654a1.931,1.931,0,0,0,1.071-.141,2.146,2.146,0,0,0,.881-.654.535.535,0,0,0-.049-.79Zm4.65,8.738a1.806,1.806,0,0,0,.741-1.811,2.528,2.528,0,0,1,.373-1.909.6.6,0,0,1-.654-.281l-.557-.368a1.132,1.132,0,0,0-.649-.189,2.017,2.017,0,0,0-1.022.465,14.427,14.427,0,0,1,1.206,3.812.962.962,0,0,1,.049.514,1.777,1.777,0,0,0-.049.324l.465.465a3.165,3.165,0,0,1,.049.93,6.144,6.144,0,0,1-.141.741,2.021,2.021,0,0,0-.043.741,1.281,1.281,0,0,0,.416.746,2.194,2.194,0,0,1,1.346-.233c.281.092.357-.265.233-1.071a5.44,5.44,0,0,1-1.071-1.157,5.18,5.18,0,0,1-.324-.7.637.637,0,0,1,.049-.281.385.385,0,0,0,.043-.184Zm-.562.557a1.422,1.422,0,0,1,1.022,0Zm12.642-10.409q.746.187,1.347.276a2.319,2.319,0,0,0,1.444-.368,2.963,2.963,0,0,1,.789-.979,5.633,5.633,0,0,1,1.065-.7,3.866,3.866,0,0,1-3.39-1.671,18.928,18.928,0,0,1-1.9-3.439,9.763,9.763,0,0,0-.416-1.3c-.157-.373-.33-.741-.514-1.114-.125-.125-.314-.125-.557,0q-.187.187-.324,0a.6.6,0,0,1-.141-.373,4.7,4.7,0,0,1-.281-1.022,6.524,6.524,0,0,1-.092-1.022l.184-.925c.125-1.179.2-2.266.233-3.255a19.532,19.532,0,0,0-.135-2.974,6.886,6.886,0,0,0-.465-1.3,6.25,6.25,0,0,0-.746-1.114,5.031,5.031,0,0,0-.049,2.228,3.106,3.106,0,0,1-.233,2.044c0,.249-.308.53-.925.838.492-.059.881.3,1.157,1.071a4.433,4.433,0,0,1,.232,2.276c0,.557-.092.865-.276.93a4.417,4.417,0,0,1-3.158-.048,5.555,5.555,0,0,0-2.79-.417,1.449,1.449,0,0,0-1.4,1.206c.557-.308.9-.216,1.022.281v.092a3.483,3.483,0,0,1,.141.324,1.34,1.34,0,0,1,.049.416v.746a1.863,1.863,0,0,0,1.162-.649,2.3,2.3,0,0,1,.881-.746,2.8,2.8,0,0,1,1.3-.184,2.788,2.788,0,0,0,1.39,1.763l1.86,1.211a3.614,3.614,0,0,1,1.768,1.4,2.322,2.322,0,0,1,.465,1.114c.059.433.119.963.184,1.579a2.916,2.916,0,0,1-.606.465,1.244,1.244,0,0,0-.508.557c-.249.373-.811.5-1.676.373a3.006,3.006,0,0,1-.7-1.438,1.949,1.949,0,0,0-.881-1.346.842.842,0,0,0-.93-.189,2.846,2.846,0,0,0,.417,2.044,5.792,5.792,0,0,1,.887,1.3,1.2,1.2,0,0,1,.276.562,3.651,3.651,0,0,0,.281.741l-.465.189a2.209,2.209,0,0,0,.6.833,1.558,1.558,0,0,0,1.444.1,1.32,1.32,0,0,1,.416-1.027,2.021,2.021,0,0,1,1.027-.465,3.533,3.533,0,0,1,1.255.049,3.647,3.647,0,0,1,1.114.416C332.779,379.636,332.5,379.852,332.006,379.977Zm-11.247-2.233a1.541,1.541,0,0,0,.092,1.163,3.258,3.258,0,0,0,.795,1.071,7.225,7.225,0,0,0,1.114.838,3.273,3.273,0,0,0,1.162.465,1.746,1.746,0,0,0-.049-1.444,2.575,2.575,0,0,0-.881-.838,7.532,7.532,0,0,0-1.211-.557A2.19,2.19,0,0,1,320.759,377.743Zm.557-17.839a8.378,8.378,0,0,1,.654,1.482,16.253,16.253,0,0,0,.606,1.579,4.5,4.5,0,0,0,.741,1.211.968.968,0,0,0,1.071.276,2.278,2.278,0,0,0,.233-1.53,4.322,4.322,0,0,0-.606-1.628,3.511,3.511,0,0,0-1.162-1.163A2.035,2.035,0,0,0,321.316,359.9Zm5.115,46.93c.681-.433,1.173-.433,1.487,0a7.054,7.054,0,0,1,.833,1.671c.5-.184.681-.432.562-.741s0-.557.368-.746a3.976,3.976,0,0,0,1.492.092c.492-.06.865.249,1.114.93a2.579,2.579,0,0,1-.281,1.86,3.8,3.8,0,0,1-1.3,1.255,8.311,8.311,0,0,1-1.909.838c-.714.216-1.411.417-2.093.606a4.54,4.54,0,0,0,2.044.465c.746,0,1.5-.016,2.282-.048a17.678,17.678,0,0,1,2.276.048,3.569,3.569,0,0,1,1.947.741,3.1,3.1,0,0,1,.93,2.044,7.135,7.135,0,0,1-.276,2.509.842.842,0,0,1,.838-.092l.557.373a3.906,3.906,0,0,0,.741.232,1.2,1.2,0,0,0,.746-.232l.465-.184a1.629,1.629,0,0,1-.373-1.211,2.866,2.866,0,0,1,.373-1.022,8.286,8.286,0,0,1,.606-.887,2.1,2.1,0,0,0,.416-.881,1.165,1.165,0,0,0-.373-.833,1.052,1.052,0,0,0-.6-.189h-.654a.575.575,0,0,1-.508-.276l2.32-.93a2.141,2.141,0,0,1-.14-1.768,2.712,2.712,0,0,0,.232-1.487,3.925,3.925,0,0,1-2.877-1.952,3.1,3.1,0,0,1,1.579-1.206l.557.373.649-.281.281.838,1.022-.373-.373-.838c-.433.189-.741.157-.93-.092-.124,0-.184-.092-.184-.276l-.465,1.022a2.252,2.252,0,0,1,.465-1.022l-.746-.092-.276-.93a3.848,3.848,0,0,1-2.044-.514,3.621,3.621,0,0,1-1.3-2.276.955.955,0,0,0-1.114.184l-.746,1.119a4.222,4.222,0,0,1-.973.741c-.341.189-.757.065-1.255-.373q-1.582-3.625-4.277-4.32a12.824,12.824,0,0,0-6.04.049c.432.925.957,1.39,1.579,1.39a5.453,5.453,0,0,0,1.909-.368,7.232,7.232,0,0,1,1.9-.465q.924-.1,1.671,1.3A2,2,0,0,1,327.5,402.7q-1.249.795-2.644,1.628a2.244,2.244,0,0,0,.881,1.022C326.074,405.532,326.307,406.029,326.431,406.835Zm-4.088-86.993a1.979,1.979,0,0,0,.649-.092,3.779,3.779,0,0,0,.465-.184,1.039,1.039,0,0,0,.281-1.022l-1.211.184q.187.47,0,.649A.64.64,0,0,0,322.343,319.842Zm.93,51.024.557,1.3,1.3-.557-.557-1.3Zm4.272-46.281a1.626,1.626,0,0,0-.789-1.438,1.9,1.9,0,0,0-1.53-.324,2.031,2.031,0,0,0-.373.232,1.7,1.7,0,0,0-.373.416c.681.308,1.255.557,1.72.741a3.045,3.045,0,0,1,.973.557l.373.465.649.189.189.925,1.022-.092-.189-1.022h-.557a.665.665,0,0,1-.373-.649Zm-1.86,82.343.1.741-.93.373a.755.755,0,0,1-.141.465c-.092.124-.076.314.049.557a3.335,3.335,0,0,1,.649-.789c.249-.216.433-.384.557-.508a1.11,1.11,0,0,1,.557-.281l-.092-.649Zm-.276-71.1a1.175,1.175,0,0,0,.93-.324c.184-.216.368-.422.557-.606l.092-.373.276-.373c.065-.184.373-.276.93-.276a4.551,4.551,0,0,1-.557-1.579,7.708,7.708,0,0,1-.049-1.4c.032-.432.065-.838.1-1.206a2.3,2.3,0,0,0-.141-1.027,2.182,2.182,0,0,0-1.4-.93,4.292,4.292,0,0,1,.324,3.3q-.511,1.622-.973,3.017l-.092.746A1.381,1.381,0,0,0,325.409,335.831Zm.373,30.762a1.987,1.987,0,0,1,.227,1.3c-.092.308.233.4.979.276a1.234,1.234,0,0,0-.092-1.206A.819.819,0,0,0,325.782,366.594Zm1.482,25.463a1.519,1.519,0,0,1,.324,1.206,1.908,1.908,0,0,1-.508.838q-.373.373-.7.746a.943.943,0,0,0-.232.838,4.08,4.08,0,0,0,2.558-1.211,4.24,4.24,0,0,0,1.162-2.417,1.861,1.861,0,0,1-1.211-.184C328.351,391.684,327.886,391.748,327.264,392.057Zm-.557-51.954,1.676.373a1.038,1.038,0,0,0,1.206-.373.545.545,0,0,0,.092-.557c-.059-.249-.125-.525-.184-.833l-1.952.184C326.988,338.957,326.707,339.362,326.707,340.1Zm2.7-22.77a3.182,3.182,0,0,1,.93-.925c.373-.065.616-.405.741-1.022a.925.925,0,0,0-.789-.373,2.421,2.421,0,0,0-1.022.233,4.828,4.828,0,0,0-.93.557,1.32,1.32,0,0,0-.514.7c-.119.308.1.616.654.93l-.092.833.649.465a2.119,2.119,0,0,1-.465,1.4.828.828,0,0,0-.184.606,2.907,2.907,0,0,0,.276,1.071,1.505,1.505,0,0,1,1.119-.233,1.139,1.139,0,0,1,.557.416l.557.746a.745.745,0,0,0,.93.092,6.513,6.513,0,0,0-1.114-2.141,3.982,3.982,0,0,1-1.027-2.044v-.746Zm-1.4,63.85a1.852,1.852,0,0,1,.092,1.3c-.124.5-.216.93-.281,1.3a1.039,1.039,0,0,0,.189.887c.184.216.708.232,1.579.043a19.661,19.661,0,0,0-.092-2.044C329.432,382.112,328.94,381.621,328.01,381.182Zm2.882,36.527c1.3-.373,1.768-1.081,1.4-2.141q-.933-.462-1.346.373A2.062,2.062,0,0,0,330.892,417.709Zm1.487,4.737c.06.438-.184.714-.741.838a7.213,7.213,0,0,1,.6.7c.216.281.433.546.649.789a1.706,1.706,0,0,0,.746.514,1.251,1.251,0,0,0,.881-.049A3.843,3.843,0,0,0,332.379,422.446Zm-.373-89.686a2.291,2.291,0,0,0,1.72.232,2.924,2.924,0,0,0,1.346-.833,5.269,5.269,0,0,0,.93-1.438,9.636,9.636,0,0,0,.557-1.584,2.134,2.134,0,0,0-.092-1.671,2.092,2.092,0,0,1-1.211,1.255c-.616.281-1.222.557-1.811.838a3.579,3.579,0,0,0-1.39,1.114A2.278,2.278,0,0,0,332.006,332.76Zm.654,64.5c.557-.249,1.049-.449,1.482-.606a1.981,1.981,0,0,1,1.4.049,2.308,2.308,0,0,1-.373-.93l-.092-.746a2.379,2.379,0,0,0-.373-1.768,2.566,2.566,0,0,0-1.206.746,2.631,2.631,0,0,0-.508,1.022,6.758,6.758,0,0,0-.189,1.119C332.769,396.518,332.72,396.891,332.66,397.264Zm3.25,10.5c.681-.5,1.163-.514,1.438-.049a11.428,11.428,0,0,1,.795,1.628c-.995.557-1.411,1.054-1.26,1.487a10.982,10.982,0,0,0,.979,1.86,2.218,2.218,0,0,0-1.022.049,4.469,4.469,0,0,1-1.071.135,1.659,1.659,0,0,1-.93-.276,1.367,1.367,0,0,1-.508-1.022c-.314-.373-.406-.654-.281-.838a3.84,3.84,0,0,1,.465-.557,1.992,1.992,0,0,0,.416-.606c.092-.216-.016-.514-.324-.881l1.022-.1Zm-1.022-23.143.368,1.022a.547.547,0,0,1,.514-.092,4.958,4.958,0,0,0,.606.184.876.876,0,0,1,0-.789c.125-.216.027-.481-.281-.79Zm.741,23.976a1.7,1.7,0,0,0-.373-.416,3.821,3.821,0,0,1-.368-.324Zm1.4-105.67c-.93.124-1.319.53-1.163,1.211s.665.963,1.536.833Zm.281,122.125a16.84,16.84,0,0,0,.373,2.558,2.291,2.291,0,0,0,1.3,1.714,12.939,12.939,0,0,1,.373-1.855,7.233,7.233,0,0,0,.281-1.86,2.119,2.119,0,0,0-.465-1.4c-.313-.373-.963-.524-1.952-.465Zm1.952-6.6.092.833h.746a2.336,2.336,0,0,1,.324.79,2.641,2.641,0,0,1,0,.654,2.479,2.479,0,0,0,0,.692,1.705,1.705,0,0,0,.416.838,7,7,0,0,0,2.276-.557c.708-.308,1.406-.589,2.093-.838a8.433,8.433,0,0,1,2-.465,3.5,3.5,0,0,1,2,.465,1.945,1.945,0,0,1-.141-1.482,1.574,1.574,0,0,0-.417-1.492,2.861,2.861,0,0,1-1.9.795,8.217,8.217,0,0,1-1.86-.33,10.9,10.9,0,0,0-2.049-.368,4.475,4.475,0,0,0-2.46.649l-.465-.557Zm.373.092v.184l-.281.557Zm6.781-101.582c.314-.065.573-.124.789-.189a3.882,3.882,0,0,0,.7-.276,2.287,2.287,0,0,0,.281-.606,1.62,1.62,0,0,0-.092-.881c-.249.308-.449.541-.606.7a2.423,2.423,0,0,1-.606.417l-.833.465-.654.276-.465.654.93.184Z" transform="translate(121.364 -297.634)" fill="#001c2f"/>
  <path id="パス_314" data-name="パス 314" d="M350.395,360a39.194,39.194,0,0,1,7.159,6.272,76.657,76.657,0,0,1,6.689,8.414,58.5,58.5,0,0,1,5.115,8.965,26.772,26.772,0,0,1,2.412,7.857,39.722,39.722,0,0,1,.281,4.645,28.322,28.322,0,0,1-.281,4.088,10.638,10.638,0,0,1,.281,2.6,28.492,28.492,0,0,1-.93,7.251,32.976,32.976,0,0,1-2.558,6.689,37.367,37.367,0,0,1-3.763,5.9,36.167,36.167,0,0,1-4.553,4.877,28.835,28.835,0,0,1-5.948,3.953,51.807,51.807,0,0,1-7.527,3.115,63.012,63.012,0,0,1-8.041,2.044,41.465,41.465,0,0,1-7.392.741,44.45,44.45,0,0,1-13.518-1.855,38.449,38.449,0,0,1-10.739-5.4,32.663,32.663,0,0,1-6.316-7.2,42.869,42.869,0,0,1-4.418-8.874,58.93,58.93,0,0,1-3.482-19.8,11.582,11.582,0,0,1,.557-3.764,2.5,2.5,0,0,1,2.693-1.628q5.11,0,10.506.049a92.773,92.773,0,0,1,9.474.508c.681-.119,1.3-.233,1.86-.324a16.048,16.048,0,0,1,1.676-.184c.557-.032,1.179-.059,1.86-.092s1.482-.049,2.412-.049a4.463,4.463,0,0,1,1.26.184,1.934,1.934,0,0,1,1.022.838,5.647,5.647,0,0,1,.649,1.952,20.891,20.891,0,0,1,.232,3.531,21.152,21.152,0,0,0,.233,3.023,10.18,10.18,0,0,0,.881,2.974,6.355,6.355,0,0,0,1.763,2.228,4.363,4.363,0,0,0,2.79.887,3.194,3.194,0,0,0,1.86-.654,8.244,8.244,0,0,0,1.719-1.628,9.45,9.45,0,0,0,1.3-2.087,4.747,4.747,0,0,0,.514-1.952c0-.432-.016-.849-.049-1.254a5.4,5.4,0,0,0-.319-1.4,10,10,0,0,0-.979-1.9,26.8,26.8,0,0,0-2-2.7,25.571,25.571,0,0,0-2-1.952c-.962-.865-1.963-1.736-3.023-2.6s-2.06-1.687-3.017-2.46-1.66-1.319-2.093-1.628q-1.671-1.208-5.067-3.763t-7.105-5.624q-3.723-3.066-7.116-6.321a41.683,41.683,0,0,1-5.159-5.759c-.925-1.363-1.828-2.7-2.693-4a24.628,24.628,0,0,1-2.325-4.461,29.52,29.52,0,0,1-1.628-5.9,48.073,48.073,0,0,1-.6-8.225,54.733,54.733,0,0,1,1.022-11.063,30.805,30.805,0,0,1,3.347-9.014,32.677,32.677,0,0,1,5.991-7.57,62.228,62.228,0,0,1,8.965-6.927,16.007,16.007,0,0,1,3.58-1.579q2.279-.738,4.883-1.346a50.815,50.815,0,0,1,5.159-.93,35.724,35.724,0,0,1,4.418-.324,52.316,52.316,0,0,1,15.8,2.185,35.438,35.438,0,0,1,12.637,7.2,27.382,27.382,0,0,1,4.51,5.2,38.043,38.043,0,0,1,3.434,6.365,36.684,36.684,0,0,1,2.19,7.067,37.4,37.4,0,0,1,.741,7.386,24.168,24.168,0,0,0,.276,3.023,29.338,29.338,0,0,1,.281,4.131,9.553,9.553,0,0,1-.746,3.909,2.841,2.841,0,0,1-2.877,1.671l-26.118-.281a6.228,6.228,0,0,1-2.276-.325,2.277,2.277,0,0,1-1.114-.833,2.581,2.581,0,0,1-.373-1.26c-.032-.492-.043-1.022-.043-1.579,0-1.054.011-1.844.043-2.368s.043-1.038.043-1.53a12.91,12.91,0,0,0-.232-2.374,9.831,9.831,0,0,0-.741-2.368,4.636,4.636,0,0,0-1.438-1.812,3.77,3.77,0,0,0-2.325-.7,4.4,4.4,0,0,0-1.3.232,3.733,3.733,0,0,0-1.438.882,4.923,4.923,0,0,0-1.163,1.811,7.984,7.984,0,0,0-.465,2.931v1.763a5.957,5.957,0,0,0,1.438,3.9,23.573,23.573,0,0,0,2.839,3.023,42.677,42.677,0,0,0,5.207,3.948,30.265,30.265,0,0,0,2.509,1.719q1.947,1.257,4.18,2.742t4.136,2.882A17.221,17.221,0,0,1,350.395,360ZM303.27,396.425l-.93.373q0-2.417-1.947-2.417a5.3,5.3,0,0,0-1.4.281.988.988,0,0,1,.092.557,1.686,1.686,0,0,1-.276,1.022,1.83,1.83,0,0,0-.281,1.114c0,.189.292.465.881.838a9.117,9.117,0,0,0,1.352.746,6.408,6.408,0,0,1,1.574-1.584l.562.562,1.017-.189c0,.189.162.281.465.281a3.64,3.64,0,0,1,.844.092c0-.5-.1-.746-.281-.746h-1.027Zm-.368,5.948-.184-.557a1.829,1.829,0,0,0-.465.049,1.222,1.222,0,0,1-.281.043,1,1,0,0,1,.092-.324,1.164,1.164,0,0,0,.092-.416c0-.308-.308-.481-.93-.514s-1.173-.043-1.671-.043a.621.621,0,0,0-.416.233c-.157.151-.233.26-.233.324a1.037,1.037,0,0,0,.557,1.022,2.908,2.908,0,0,0,1.3.276h.6a1.8,1.8,0,0,0,.606-.092l.368.189Zm6.413-.557a2.9,2.9,0,0,0,.373-.649q0-.187-1.119-.746l.092.654-1.022-.092a1.2,1.2,0,0,1-.649-.1l-.557-.092h-.465a4.086,4.086,0,0,1-.741-.092q-.195,1.671-2.325,1.671a5.96,5.96,0,0,0,1.763,1.255c.616.281,1.211.578,1.768.887.308-.681.589-1.287.838-1.817a2.689,2.689,0,0,1,1.39-1.255ZM306.9,338.993a1.594,1.594,0,0,1-.276.741,1.551,1.551,0,0,0-.281.746c0,.184.119.276.368.276a1.024,1.024,0,0,1,.422-.741,1.043,1.043,0,0,0,.416-.746Q307.547,338.993,306.9,338.993Zm3.72,54.739c-.378,0-.746-.016-1.119-.049a1.268,1.268,0,0,1-.838-.324,1.839,1.839,0,0,1-.881,1.162c-.465.276-.7.573-.7.881,0,.373.281.687.838.93.06-.373.216-.557.465-.557.124,0,.292.173.508.514s.449.508.7.508a1.088,1.088,0,0,1,.465-.789c.249-.151.514-.308.795-.465a4.122,4.122,0,0,0,.735-.514,1.157,1.157,0,0,0,.33-.925.533.533,0,0,1-.1-.373Zm-1.4-69.052c.06-.065.216-.092.465-.092.119,0,.308.016.552.043a4.774,4.774,0,0,0,.562.049c.432,0,.649-.157.649-.465,0-.184-.135-.324-.416-.416a2.087,2.087,0,0,0-.606-.141A1.109,1.109,0,0,0,309.223,324.68Zm.276,90.151a1.762,1.762,0,0,0,.93,1.482l2.6.838c.681.184,1.287.324,1.811.416s.822.114.887.049a2.49,2.49,0,0,0,.092-.746ZM313.96,312.5q0-2.88-1.947-2.877a5.4,5.4,0,0,0-1.4.276,1.289,1.289,0,0,1,.087.649,2.312,2.312,0,0,1-.276,1.211,2.49,2.49,0,0,0-.276,1.3c0,.249.292.589.881,1.022a15.656,15.656,0,0,0,1.346.93,6.3,6.3,0,0,1,1.579-1.952l.557.746.93-.281c0,.249.157.373.465.373a3.617,3.617,0,0,1,.838.092c0-.616-.092-.93-.281-.93h-1.022l-.557-1.022Zm.557,6.505-.184-.649a1.863,1.863,0,0,0-.465.048,1.579,1.579,0,0,1-.276.043c-.249,0-.53-.249-.844-.741a1.7,1.7,0,0,0-1.579-.746.63.63,0,0,0-.416.281.9.9,0,0,0-.233.373,1.21,1.21,0,0,0,.562,1.206,3.113,3.113,0,0,0,1.4.276,4.029,4.029,0,0,0,.6-.043,3.617,3.617,0,0,1,.514-.049l.368.281Zm-1.671,81.786c-.065.124.049.249.324.373s.422.216.422.276c0,.124-.114.233-.33.33s-.465.184-.746.276-.633.2-1.065.324h.184c3.039-.373,4.558-.741,4.558-1.114C316.193,401.01,315.074,400.859,312.846,400.794Zm1.211-81.786a.378.378,0,0,1-.1.281Zm0,0a.713.713,0,0,1,.276-.649Zm.833,74.351a.6.6,0,0,1,.049-.276,1.107,1.107,0,0,0,.043-.373c0-.373-.124-.557-.373-.557-.308,0-.465.184-.465.557Q314.144,393.172,314.89,393.359Zm5.954-75-.189-.838h1.206c.746,0,1.114-.184,1.114-.557a1.258,1.258,0,0,0-.184-.789,2.639,2.639,0,0,1-.368-.789.976.976,0,0,1-.838.373h-.465a.428.428,0,0,0-.465.276c.189,0,.276.065.276.189a.539.539,0,0,1-.135.276.947.947,0,0,0-.141.562l-.557-.373.649,1.39q-.187-.365-.324-.649c-.092-.184-.2-.432-.324-.741l.092.833-1.022-.184c-.379,0-.595-.032-.649-.092l-.562-.092h-.465a4.176,4.176,0,0,1-.741-.092,1.968,1.968,0,0,1-2.233,1.947,5.192,5.192,0,0,0,1.676,1.536l1.763.973c.314-.741.589-1.438.833-2.093a2.908,2.908,0,0,1,1.4-1.53Zm-5.954-6.04a.376.376,0,0,1-.092.276Zm5.024,117.842a3.2,3.2,0,0,0-.514-.557,1.489,1.489,0,0,0-.979-.276C318.6,429.885,319.1,430.161,319.914,430.161Zm2.228-121.281a7.025,7.025,0,0,1-1.114-.092,1.549,1.549,0,0,1-.838-.373,2.2,2.2,0,0,1-.887,1.254,1.448,1.448,0,0,0-.7,1.163q0,.649.844,1.022c.054-.373.216-.557.465-.557.119,0,.292.2.508.6s.449.606.7.606a1.336,1.336,0,0,1,.465-.93c.249-.184.508-.373.789-.557a3.575,3.575,0,0,0,.746-.649,1.66,1.66,0,0,0,.319-1.114.607.607,0,0,1-.086-.373Zm-1.4,89.4a2.538,2.538,0,0,1-.746,1.444,2.4,2.4,0,0,0-.552,1.812c0,.059.254.151.789.276a2.378,2.378,0,0,1,.973.373,1.763,1.763,0,0,0,.746-1.487,2.5,2.5,0,0,0-.373-1.347A5.925,5.925,0,0,0,320.746,398.285Zm.184,11.058a13.789,13.789,0,0,0,6.419-1.487,1.467,1.467,0,0,1-.189-.649,29.537,29.537,0,0,0-3.672.233,7.545,7.545,0,0,0-3.017.979A3.208,3.208,0,0,0,320.93,409.343Zm11.9,12.826a1.745,1.745,0,0,1,.93.189c.433-.065.649-.249.649-.557,0-.189-.157-.281-.465-.281a1.373,1.373,0,0,0-1.022.373l-.838-.092-1.114.649h.281a2.885,2.885,0,0,1-1.211.184h-.368v-.649l-1.211.649.746.465c-.065.5-.595.746-1.584.746h-.373l-.276-.557-.649,1.016a2.094,2.094,0,0,1,.649-1.016l-.838.184c-.06-.184-.406-.281-1.022-.281a8.634,8.634,0,0,0-2.044.281c-.746.184-1.114.432-1.114.741,0,.5.368.746,1.114.746l-.368.557.833.281a3.034,3.034,0,0,0,.184,1.163,2.045,2.045,0,0,1,.184.881,1.183,1.183,0,0,1-.833,1.114,1.384,1.384,0,0,0,1.211.93,3.874,3.874,0,0,0,1.622-.417,7.508,7.508,0,0,1,1.909-.606,2.957,2.957,0,0,1-2.093-1.346,5,5,0,0,0-1.536-1.719l.184-.654-.833-.184a1.022,1.022,0,0,1,.6-1.022,2.75,2.75,0,0,1,1.163-.281,1.838,1.838,0,0,1,.838.189l.189.46.925-.092a1.556,1.556,0,0,0,1.4.557,5.192,5.192,0,0,0,1.162-.135,4.946,4.946,0,0,1,1.163-.141,1.277,1.277,0,0,1,.649.092V422.45h.93ZM322.974,366.5a1.3,1.3,0,0,0,1.4.838,3.016,3.016,0,0,0,1.211-.281,5.1,5.1,0,0,0,1.022-.557,1.279,1.279,0,0,0-.741-.465,2.008,2.008,0,0,0-.979.281,2.413,2.413,0,0,1-1.162.276A1.532,1.532,0,0,1,322.974,366.5Zm.281,25.1.649.092c0,1.422.562,2.26,1.676,2.509a1.075,1.075,0,0,0,.373-.746,2.03,2.03,0,0,0-.606-1.39,1.8,1.8,0,0,0-1.346-.649ZM323.72,323a3.281,3.281,0,0,0-.184.746,1.463,1.463,0,0,0,.746,1.3v-1.211C324.283,323.35,324.093,323.069,323.72,323Zm2.882,93.309a5.49,5.49,0,0,0-.974.422,3.164,3.164,0,0,1-.881.324c.3.622,1.265.93,2.877.93.065-.059.092-.216.092-.465q0-.462-.6-.422c-.406.032-.606-.1-.606-.416A.565.565,0,0,1,326.6,416.313Zm1.4-49.72a5.751,5.751,0,0,0,.746-.043,6.37,6.37,0,0,1,.833-.049h.649q-.649-.276-.649-.746a1.929,1.929,0,0,1,.141-.649,1.928,1.928,0,0,0,.141-.649,2.083,2.083,0,0,0-.281-.557c-.557.124-.881.276-.979.465a1.761,1.761,0,0,0-.135.741v.373q0,.649-.746.649h-.557C327.159,366.441,327.441,366.593,328,366.593Zm1.579,55.117a2.552,2.552,0,0,1,.281-.606,12.556,12.556,0,0,1,1.3-1.719,1.368,1.368,0,0,0-1.016-.373,2.343,2.343,0,0,0-1.076.324,2.928,2.928,0,0,1-1.438.324h-.373v.654a1.992,1.992,0,0,0,.233.973c.157.281.573.481,1.26.606h.93c0-.065-.016-.092-.049-.092S329.576,421.769,329.576,421.709ZM329.019,309.9a3.592,3.592,0,0,1-.741,1.763,3.277,3.277,0,0,0-.562,2.141q0,.089.795.324a2.741,2.741,0,0,1,.973.416,2.415,2.415,0,0,0,.741-1.768,3.474,3.474,0,0,0-.368-1.579A6.96,6.96,0,0,0,329.019,309.9Zm-.741,7.619a.607.607,0,0,1-.562.373c0,.741.313,1.114.93,1.114a3.068,3.068,0,0,1-.049-.881A.555.555,0,0,0,328.279,317.521Zm.741-9.106a1.153,1.153,0,0,1,.043-.324,1.351,1.351,0,0,0,.049-.422c0-.432-.124-.649-.368-.649-.314,0-.465.184-.465.557A.825.825,0,0,0,329.019,308.415Zm2.417,114.035.184-.092Zm3.347-67.008a9.54,9.54,0,0,1,2.644,1.53,10.513,10.513,0,0,1,1.909,2.558,1.613,1.613,0,0,0,1.579-1.022,6.213,6.213,0,0,0,.557-1.86,4.386,4.386,0,0,1-.7.281,2.993,2.993,0,0,1-.79.092,3.855,3.855,0,0,1-1.3-.324c-.562-.216-.844-.546-.844-.979a.694.694,0,0,1,.379-.6.633.633,0,0,0,.368-.514.5.5,0,0,0-.368-.557,3.1,3.1,0,0,1-.93.189,4.689,4.689,0,0,1-.7-.049,4.739,4.739,0,0,0-.7-.049,2.511,2.511,0,0,0-.789.141,1.041,1.041,0,0,0-.606.79l-.465.092-.276.373a1.1,1.1,0,0,0-.465-.092,1.368,1.368,0,0,0-1.162.557,1.832,1.832,0,0,0-.416,1.114,1.379,1.379,0,0,0,.368,1.022l.746-.184c.492-.314.7-.654.6-1.022s.114-.714.606-1.022h.557Zm3.623,26.112a11.168,11.168,0,0,1-1.676-1.628,9.886,9.886,0,0,0-1.811-1.671,1.481,1.481,0,0,0-1.53-.276c-.438.216-.714,1.038-.838,2.46a4.688,4.688,0,0,1,2.325.838,3.088,3.088,0,0,0,1.952.649A3.89,3.89,0,0,0,338.406,381.555ZM335.9,428.679v-1.86a1.064,1.064,0,0,0-.649.141,1.368,1.368,0,0,0-.33.368,1.227,1.227,0,0,1-.324.373.929.929,0,0,1-.557.141H333.3v.281c0,.368.308.557.925.557Zm2.877-8.83a3.663,3.663,0,0,0-.27.465,1.682,1.682,0,0,1-.281.373,1.726,1.726,0,0,0-.514-1.26,9.226,9.226,0,0,1-1.346-2.741h-.373a.922.922,0,0,0-.741.233c-.125.157-.249.324-.373.514s-.249.357-.373.508a.919.919,0,0,1-.741.232,5.675,5.675,0,0,1,1.487,1.211,2.693,2.693,0,0,0,2.13.741h.465l.379.562c.249,0,.384.092.416.276a4.943,4.943,0,0,0,.135.557,1.829,1.829,0,0,0,.33.557,1.25,1.25,0,0,0,.979.281c.676,0,1.082-.108,1.206-.325a5.433,5.433,0,0,0,.184-1.909,1.678,1.678,0,0,0-1.022.233,1.263,1.263,0,0,1-.833.233c-.379,0-.595-.027-.654-.092Zm-4.553-57.718c.124.313.465.465,1.027.465a8.022,8.022,0,0,0,1.763-.233,8.318,8.318,0,0,1,1.763-.232,2.508,2.508,0,0,0-1.763-.46A5.81,5.81,0,0,0,334.221,362.132Zm3.158,51.77a3.165,3.165,0,0,1-.552-.049,3.888,3.888,0,0,0-.562-.043c-.368,0-.552.124-.552.368,0,.313.308.465.93.465.552,0,.833-.151.833-.465l-.1-.184Zm.746-82.716a6.921,6.921,0,0,0,1.26-.979,1.6,1.6,0,0,0,.508-1.163,1.434,1.434,0,0,0-.189-.649l-.368-.465a4.949,4.949,0,0,1-1.346,1.022,1.032,1.032,0,0,0-.611,1.022,1.711,1.711,0,0,0,.195.7A.8.8,0,0,0,338.125,331.185Zm-.184-24.814c0,1.736.562,2.725,1.676,2.974a1.167,1.167,0,0,0,.368-.838,2.048,2.048,0,0,0-.649-1.487A1.953,1.953,0,0,0,337.942,306.371Zm4.834,31.038v-.93H342.4c-.681,0-1.022.314-1.022.93Zm.276,86.9.281-.092c0-.124-.406-.184-1.211-.184-.368,0-.557.059-.557.184,0,.065.065.092.189.092h1.3Zm-.184-102.415.184.838a2.764,2.764,0,0,0,2.325-2.514,7.959,7.959,0,0,0-.6-1.016,1.569,1.569,0,0,0-1.352-.465c-.308.308-.665.681-1.071,1.114a2.024,2.024,0,0,0-.6,1.4,1.285,1.285,0,0,0,.368.93Zm.833,65.337c-.492,0-.741.216-.741.649a3.227,3.227,0,0,0,.049.557,4.614,4.614,0,0,1,.043.654c.562,0,.838-.249.838-.746a2.115,2.115,0,0,0-.092-.649A1.485,1.485,0,0,1,343.7,387.227Zm1.027-4.742c-1.114.065-1.676.714-1.676,1.952h.746a.8.8,0,0,0,.746-.325A4.313,4.313,0,0,0,344.728,382.485Zm3.9-45.075a3.577,3.577,0,0,0-2.325-.833,1.827,1.827,0,0,0-1.763.833,1.878,1.878,0,0,0,1.4.562,4.276,4.276,0,0,0,1.482-.281A3.709,3.709,0,0,1,348.632,337.409Zm-1.579,36.808a.086.086,0,0,1-.1-.1.243.243,0,0,1-.092-.184l-.373.373-.281-.281-.552.373c-.562.314-.844.622-.844.93a1.56,1.56,0,0,0,.195.465l1.855-1.022.465.373.373-.562a3.325,3.325,0,0,0,.649.189,1.782,1.782,0,0,0,.93-.281l.93-.649a1.809,1.809,0,0,1,.925-.373,2.03,2.03,0,0,1,1.027.465l1.016,1.211a1.948,1.948,0,0,0,.746.368.827.827,0,0,0,.562-.276,5.838,5.838,0,0,0-.514-2,1.894,1.894,0,0,0-1.909-1.255,2.523,2.523,0,0,0-1.065.233c-.341.157-.73.357-1.163.606l-2.32,1.487-.562-.373Zm2.136,15.146a1.075,1.075,0,0,1-.422.7,4.983,4.983,0,0,1-.7.422,3.262,3.262,0,0,0-.7.465,1.362,1.362,0,0,0-.417.833,8.188,8.188,0,0,0,1.536.746,7.666,7.666,0,0,1,1.53.741,15.808,15.808,0,0,1-.232-2.185A2.5,2.5,0,0,0,349.189,389.363Zm.092-57.529-.189-.741h-.925v.93a.408.408,0,0,0-.465.465.521.521,0,0,1-.465.557c.06.308.216.46.465.46a.976.976,0,0,0,.7-.324,1.069,1.069,0,0,0,.325-.789.539.539,0,0,0-.092-.368Zm2.882,51.115c-.13,0-.2-.011-.233-.043a.194.194,0,0,0-.141-.049.978.978,0,0,0-.324.049,1.013,1.013,0,0,1-.33.043c-.552,0-.833-.151-.833-.465a.771.771,0,0,1,.092-.465c-.5.249-.973.465-1.438.654a1.239,1.239,0,0,0-.7,1.3.576.576,0,0,0,.465.649,4.113,4.113,0,0,0,.649.092,1.762,1.762,0,0,0,.881-.232,1.636,1.636,0,0,1,.795-.233c.184,0,.292.124.319.373s.114.368.233.368c.065,0,.189-.341.379-1.017Zm2.79-42.469a2.706,2.706,0,0,1,.043-.465,3.449,3.449,0,0,0,.043-.465,3.12,3.12,0,0,0-.552-2.044,1.7,1.7,0,0,0-1.309-.654,2.186,2.186,0,0,0-1.579.789,3.227,3.227,0,0,0-.741,2.282h.557a3,3,0,0,1,1.492.324,2.71,2.71,0,0,0,1.39.325.977.977,0,0,0,.324-.049A1.017,1.017,0,0,1,354.953,340.48Zm-1.492,86.339a.7.7,0,0,0-.319-.654,1.644,1.644,0,0,0-.795-.184,1.8,1.8,0,0,0-1.3.373c0,.06.151.2.465.416s.616.454.93.7Zm.373-107.065a.893.893,0,0,0-.654-.281.873.873,0,0,0-.735.373,3.538,3.538,0,0,1-.654.649v.281a1.133,1.133,0,0,0,1.022.649,1.077,1.077,0,0,0,.789-.324,1.057,1.057,0,0,0,.324-.79A1.328,1.328,0,0,0,353.834,319.754Zm-1.022,10.036a4.488,4.488,0,0,1,.833,1.114l-.086-.276h2.693c0-.432-.265-.638-.79-.606s-.854-.108-.973-.416l.184-.93a3.037,3.037,0,0,1-.93.184l.281.746c0,.308-.13.465-.379.465Zm1.211-1.676-.281.746.93-.184Zm6.126,64.039a2.782,2.782,0,0,1,.562-1.162,1.676,1.676,0,0,0,.368-1.163.6.6,0,0,0-.416-.557,7.039,7.039,0,0,0-.881-.324,5.154,5.154,0,0,0-.979-.189c-.335-.027-.541-.043-.6-.043a4.526,4.526,0,0,0-4.18,2.417,1.725,1.725,0,0,0,1.579,1.114,5.215,5.215,0,0,0,1.579-.233,5.356,5.356,0,0,1,1.579-.233A2.748,2.748,0,0,1,360.149,392.153Zm-2.044,15.054a3.146,3.146,0,0,0-2.32-.925A1.371,1.371,0,0,0,354.3,407.4a2.01,2.01,0,0,1,.654-.1h.276l1.022.373a2.316,2.316,0,0,0,.741.092A1.587,1.587,0,0,0,358.105,407.207Zm-.087-28.345c0-.746-.33-1.146-.979-1.206a12.171,12.171,0,0,1-1.72-.281,3.088,3.088,0,0,1-.557,2.044h1.4A2.568,2.568,0,0,0,358.019,378.862Zm-1.4,5.948a.573.573,0,0,0,.649.649,2.441,2.441,0,0,0,.416-.043c.157-.032.389-.081.7-.141a1.233,1.233,0,0,0-1.4-1.4h-.368Zm3.158-51.3a1.266,1.266,0,0,0,.562.1.589.589,0,0,0,.6-.325,5.25,5.25,0,0,0,.233-.7,2.62,2.62,0,0,1,.281-.7.771.771,0,0,1,.741-.324.851.851,0,0,0-.741-.465,1.491,1.491,0,0,0-1.114.7A2.627,2.627,0,0,0,359.782,333.505Z" transform="translate(210.598 -299.401)" fill="#001c2f"/>
</svg>
