<svg xmlns="http://www.w3.org/2000/svg" width="335.625" height="134.182" viewBox="0 0 335.625 134.182">
  <g id="グループ_260" data-name="グループ 260" transform="translate(23703 24917.572)">
    <path id="パス_1" data-name="パス 1" d="M-33.238,31.985h21.621l4.041,14.548H10.61l-19.4-67.388H-35.562l-19.5,67.388h17.68Zm17.882-15.66H-29.6l7.072-25.359ZM16.874-20.854V46.533H34.756V19.053a87.578,87.578,0,0,0,5.254,9.9L51.022,46.533H72.744l-20.105-29c5.355-1.111,7.779-2.122,10.305-4.142,4.243-3.435,6.769-9.5,6.769-15.963,0-6.567-2.324-11.72-6.769-14.751-3.637-2.627-8.487-3.536-17.984-3.536ZM34.756-5.195h6.971c4.243,0,6.062.3,7.274,1.01,1.515,1.01,2.324,2.93,2.324,5.355,0,5.052-3.031,7.274-10.2,7.274H34.756ZM77.8-20.854V46.533H95.678V-20.854Zm85.674,0H146.5V-1.76c0,8.386.707,17.074,2.324,31.623h-.606A221.293,221.293,0,0,0,139.121.16l-8.79-21.014H105.781V46.533h16.973V22.387c-.3-12.73-.606-18.186-1.515-26.571h.505a181.431,181.431,0,0,0,8.588,24.551l12.023,26.167h21.115Zm10.1,0V46.533h17.882l-.505-30.612a43.983,43.983,0,0,0,2.122,4.344l15.963,26.268h21.52L207.519,12.89l22.328-33.744h-21.52L193.981,3.09a40.384,40.384,0,0,0-2.526,4.647V-20.854Zm104.466,4.445c-6.769-4.344-12.73-6.163-20.307-6.163-15.155,0-25.46,8.992-25.46,22.328a19.258,19.258,0,0,0,4.951,13.336c2.93,3.233,7.88,5.658,15.963,7.88,8.79,2.425,10.406,3.536,10.406,6.87S260.358,33.2,255.1,33.2a28.162,28.162,0,0,1-11.315-2.425c-3.334-1.414-5.254-2.829-8.992-6.668V41.684a36.765,36.765,0,0,0,21.52,6.567c14.043,0,24.247-9.295,24.247-21.924,0-8.386-4.142-14.548-11.821-17.781-3.334-1.313-5.658-2.021-13.538-4.142-3.738-1.01-5.153-2.324-5.153-4.849,0-3.334,3.132-5.153,8.79-5.153a28.339,28.339,0,0,1,10.305,2.021c3.536,1.313,5.254,2.526,8.891,6.365Z" transform="translate(-23647.939 -24895)" fill="#00ca92"/>
    <path id="パス_2" data-name="パス 2" d="M46,33.534l-6.045.094q-.4,0-.469-.094a.807.807,0,0,1-.07-.422V29.645q0-.375.094-.445a.875.875,0,0,1,.445-.07l5.365.094v-6.3l-.094-4.17q0-.375.117-.445a.945.945,0,0,1,.469-.07l6.607.094h5.576q-.094-2.882-.281-4.311,2.788.07,4.967.328.773.07.773.633a1.434,1.434,0,0,1-.117.469,2.855,2.855,0,0,0-.164.445,9.473,9.473,0,0,0-.281,2.437H68.7l6.654-.094q.4,0,.469.094a.807.807,0,0,1,.07.422L75.8,22.874v6.349l5.318-.094a.854.854,0,0,1,.515.094.807.807,0,0,1,.07.422v3.468q0,.351-.094.433a.89.89,0,0,1-.492.082l-6.045-.094h-10.8q5.951,7.193,18.252,8.481a10.968,10.968,0,0,0-1.921,3.7,3.158,3.158,0,0,1-.422,1.054.705.705,0,0,1-.586.234,6.328,6.328,0,0,1-1.007-.141,31.153,31.153,0,0,1-11.152-4.381A24.514,24.514,0,0,1,60.288,35.6a13.784,13.784,0,0,1-1.382,2.3q-4.592,6.42-15.745,8.973a6.29,6.29,0,0,1-1.054.141q-.562,0-1.054-1.242A12.473,12.473,0,0,0,39.037,42.6Q51.08,40.8,55.2,34.823a9.263,9.263,0,0,0,.773-1.289Zm16.26-4.311h8.6V22.593H62.841A52.424,52.424,0,0,1,62.256,29.223Zm-4.311-6.631H50.213v6.631h7.1A45.246,45.246,0,0,0,57.945,22.593ZM50.986,3.287q2.905.094,4.826.351.679.07.679.469a1.481,1.481,0,0,1-.281.726,8.83,8.83,0,0,0-.281,3.022H64.9a28.732,28.732,0,0,0-.281-4.616,41.643,41.643,0,0,1,4.78.4q.679.07.679.469a1.558,1.558,0,0,1-.234.726,8.961,8.961,0,0,0-.281,3.022h5.74l6-.094a.854.854,0,0,1,.515.094.807.807,0,0,1,.07.422v3.514q0,.375-.117.445a.945.945,0,0,1-.469.07l-6-.094h-5.74l.094,3.116q0,.422-.094.492a.688.688,0,0,1-.445.094h-3.8q-.375,0-.445-.117a.945.945,0,0,1-.07-.469q0-.047.023-1.007.047-1.031.07-2.109H55.93l.094,3.163a.741.741,0,0,1-.094.469.875.875,0,0,1-.445.07H51.712q-.4,0-.469-.117a.732.732,0,0,1-.07-.422q0-.117.023-1.078.047-1.054.07-2.085H45.855l-6,.094a.741.741,0,0,1-.469-.094.807.807,0,0,1-.07-.422V8.277q0-.375.117-.445a.732.732,0,0,1,.422-.07l6,.094h5.412A28.337,28.337,0,0,0,50.986,3.287ZM96.064,31.472l-6.349.094a.8.8,0,0,1-.492-.094.807.807,0,0,1-.07-.422V27.443q0-.375.094-.445a.945.945,0,0,1,.469-.07l6.349.094h25.561l6.349-.094a.8.8,0,0,1,.492.094.807.807,0,0,1,.07.422v3.608a.7.7,0,0,1-.082.433.823.823,0,0,1-.48.082l-6.349-.094H106.818a91.451,91.451,0,0,1-4.288,9.02q7.5-.422,14.784-1.195-2.2-2.694-3.491-4.077a.661.661,0,0,1-.211-.4q0-.234.492-.469l3.069-1.593a1.154,1.154,0,0,1,.515-.187.771.771,0,0,1,.492.281,88.493,88.493,0,0,1,8.927,11.152.743.743,0,0,1,.164.4q0,.234-.4.492l-3.327,2.179a1.449,1.449,0,0,1-.562.281q-.187,0-.4-.328-.961-1.617-2.39-3.749-9.3,1.171-25.913,2.437a3.9,3.9,0,0,0-1.734.445,1.274,1.274,0,0,1-.82.281q-.515,0-.656-.679a50.248,50.248,0,0,1-1.007-4.944q1.1.094,2.319.094,1.172,0,2.905-.094l1.546-.047a80.652,80.652,0,0,0,4.217-9.3Zm35.5-12.23a15.053,15.053,0,0,0-2.062,3.585q-.469,1.195-.82,1.195a3.754,3.754,0,0,1-1.1-.375,54.125,54.125,0,0,1-9.161-5.084v3.561q0,.375-.094.445a.807.807,0,0,1-.422.07l-5.436-.094h-7.38l-5.436.094q-.375,0-.445-.094a.807.807,0,0,1-.07-.422V18.469a55.553,55.553,0,0,1-8.692,5.178,3.452,3.452,0,0,1-1.148.445q-.328,0-.867-1.195a11.172,11.172,0,0,0-2.155-3.186q12.113-4.78,18.416-13.941a14.976,14.976,0,0,0,1.687-3.116,36.272,36.272,0,0,1,5.178,1.007q.867.211.867.656a.8.8,0,0,1-.469.773,3.867,3.867,0,0,0-.679.422A44.488,44.488,0,0,0,131.56,19.242ZM99.813,18q.843.094,5.272.094h7.38q4.124,0,5.178-.094a43.97,43.97,0,0,1-9.067-8.786A44.478,44.478,0,0,1,99.813,18Zm59.909,4.452-6.232.094a.741.741,0,0,1-.469-.094.806.806,0,0,1-.07-.422V18.375q0-.469.539-.469l6.232.094h3.116V11.6q-3.21.586-6.631,1.031-.445.047-.633.047a.614.614,0,0,1-.562-.258,6.6,6.6,0,0,1-.328-.867A8.778,8.778,0,0,0,153,8.3a65.819,65.819,0,0,0,18.181-3.655,10.9,10.9,0,0,0,2.46-1.195,33.881,33.881,0,0,1,2.882,3.468,1.5,1.5,0,0,1,.328.82q0,.515-.961.515a7.169,7.169,0,0,0-1.874.375q-3.069,1.078-6.139,1.827V18h3.936l6.279-.094q.515,0,.515.469V22.03q0,.375-.094.445a.732.732,0,0,1-.422.07l-6.279-.094h-3.936v6.49h2.015l5.764-.094q.375,0,.445.094a.807.807,0,0,1,.07.422l-.094,4.709v4.311l.094,8.107q0,.469-.515.469h-3.936q-.539,0-.539-.469V44.757h-11.41v1.968q0,.469-.515.469h-3.936q-.539,0-.539-.469l.094-8.2V34.776l-.094-5.412q0-.375.094-.445a.875.875,0,0,1,.445-.07l5.74.094h1.781v-6.49Zm.047,10.8v7.24h11.41v-7.24Zm-8.294,12.605a.742.742,0,0,1-.094.469.875.875,0,0,1-.445.07h-3.491q-.4,0-.469-.094a.875.875,0,0,1-.07-.445V44.57h-5.318v2.2q0,.492-.539.492h-3.491a.854.854,0,0,1-.515-.094.743.743,0,0,1-.07-.4l.094-7.24v-3.21l-.094-4.5q0-.4.117-.469a.945.945,0,0,1,.469-.07l4.358.094h4.616l4.4-.094q.4,0,.469.094a.875.875,0,0,1,.07.445l-.094,3.678v3.444Zm-4.569-10.5h-5.318v5.272h5.318ZM140.627,11.7h6.56l5.131-.094a.742.742,0,0,1,.469.094.807.807,0,0,1,.07.422V15.54a.8.8,0,0,1-.094.492.875.875,0,0,1-.445.07l-5.131-.094h-6.56l-5.154.094q-.328,0-.4-.117a.875.875,0,0,1-.07-.445V12.12q0-.515.469-.515Zm1.429-6.56h4.616l4.311-.094q.422,0,.492.094a.638.638,0,0,1,.094.422V8.746q0,.375-.117.445a.945.945,0,0,1-.469.07l-4.311-.094h-4.616l-4.358.094a.741.741,0,0,1-.469-.094.807.807,0,0,1-.07-.422V5.56q0-.375.094-.445a.874.874,0,0,1,.445-.07Zm.141,13.331h4.077l4.03-.094a.854.854,0,0,1,.515.094.807.807,0,0,1,.07.422v3.14q0,.375-.117.445a.945.945,0,0,1-.469.07l-4.03-.094H142.2l-4.077.094q-.375,0-.445-.094a.806.806,0,0,1-.07-.422v-3.14q0-.375.094-.445a.807.807,0,0,1,.422-.07Zm0,6.42h4.077l4.03-.094a.854.854,0,0,1,.515.094.875.875,0,0,1,.07.445V28.4q0,.375-.117.469a.945.945,0,0,1-.469.07l-4.03-.117H142.2l-4.077.117q-.375,0-.445-.094a.874.874,0,0,1-.07-.445V25.334q0-.4.094-.469a.807.807,0,0,1,.422-.07Z" transform="translate(-23644.064 -24830.748)" fill="#00ca92"/>
  </g>
</svg>
